<svg xmlns="http://www.w3.org/2000/svg" fill="none" viewBox="0 0 36 36">
  <path d="M10 6.27429C12.6241 6.09143 14.9428 6 16.9561 6C22.5436 6 25.3373 7.88571 25.3373 11.6571C25.3373 13.2571 24.9528 14.6857 24.1836 15.9429C23.4145 17.2 22.0912 18.0343 20.2136 18.4457L27 30H23.8443L17.1936 18.6514H12.8164V30H10V6.27429ZM16.9561 6.34286C15.644 6.34286 14.2641 6.42286 12.8164 6.58286V18.3086H17.8383C21.0279 18.1714 22.6228 15.9771 22.6228 11.7257C22.6228 9.98857 22.1477 8.66286 21.1976 7.74857C20.2475 6.81143 18.8337 6.34286 16.9561 6.34286Z" fill="black"/>
	<style>
    @media (prefers-color-scheme:dark){:root{filter:invert(100%)}}
  </style>
</svg>
