<?xml version="1.0" encoding="UTF-8" standalone="no"?>
<svg width="386px" height="207px" viewBox="0 0 386 207" version="1.1" xmlns="http://www.w3.org/2000/svg" xmlns:xlink="http://www.w3.org/1999/xlink">
    <!-- Generator: sketchtool 3.6.1 (26313) - http://www.bohemiancoding.com/sketch -->
    <title>Group 3</title>
    <desc>Created with sketchtool.</desc>
    <defs></defs>
    <g id="Page-1" stroke="none" stroke-width="1" fill="none" fill-rule="evenodd">
        <g id="My-Genetics" transform="translate(-841.000000, -2525.000000)">
            <g id="Group-3" transform="translate(841.000000, 2525.000000)">
                <path d="M385.011762,104.399065 C384.412246,101.208778 383.901451,97.9756593 383.571102,94.746434 C382.92302,88.4066969 382.149868,82.0213315 381.927065,75.6504433 C381.820019,72.5830637 380.90928,69.7869577 379.82891,66.9379349 C378.719099,64.0134308 378.380439,60.9978697 377.72705,57.9606427 C377.395599,56.4207626 376.918349,54.9160273 376.25755,53.4843771 C375.683068,52.2395334 374.849334,51.0500028 374.722762,49.6516003 C374.598793,48.2810541 374.535807,47.016741 374.190938,45.6745503 C373.828745,44.2628687 373.439515,42.8538829 372.946344,41.48124 C372.43625,40.060972 371.749816,38.7159856 370.850693,37.499697 C370.162056,36.5680611 369.372081,35.8334155 368.332166,35.2546251 C367.080963,34.5583194 365.767176,33.8995546 364.369374,33.5652799 C362.915295,33.2174266 361.42727,33.0389071 359.970888,32.7016371 C358.481862,32.3569788 357.175485,31.6924231 355.795607,31.06441 C354.78353,30.6039337 353.501485,30.1420595 352.881442,29.1542119 C352.193506,28.0584339 352.523955,26.2954045 352.594451,25.0751222 C352.66695,23.8201943 352.829671,22.5752507 353.048169,21.3376955 C353.175442,20.6122356 353.316834,19.8894714 353.45302,19.1657088 C353.574585,18.519025 353.774357,18.9724125 354.175302,19.1565232 C354.993215,19.5324325 355.698475,17.2110805 355.903554,16.6595472 C356.313912,15.558777 356.712355,14.1714572 356.211974,13.0349432 C356.022816,12.6055181 355.720905,12.3006971 355.219724,12.487204 C354.992815,12.571871 354.890876,12.9965036 354.684896,13.0249589 C354.60729,12.9830248 354.579552,12.9115372 354.602584,12.8103961 C354.691405,11.0556537 355.091249,9.28603463 354.796347,7.53019393 C354.543303,6.02286269 353.811307,4.55157481 352.812248,3.39768814 C350.70518,0.964711549 347.473083,-0.397647511 344.250798,0.102865935 C341.496049,0.530693606 338.974919,2.21474712 337.562497,4.61587376 C336.851429,5.8252732 336.441372,7.19671798 336.370575,8.59691757 C336.340935,9.19108384 336.960077,12.8023088 336.542109,13.0222632 C336.533096,13.0270556 336.133953,12.5213503 336.047235,12.4725271 C335.699662,12.2771341 335.291006,12.517756 335.130187,12.812992 C334.556006,13.8666362 334.86022,15.1905557 335.195777,16.2686615 C335.371115,16.8313772 336.207653,19.4293944 336.996327,19.1787882 C337.199804,19.1140899 337.442434,18.757051 337.658428,18.7883019 C337.916979,18.825743 337.898855,20.0310489 337.952628,20.2770623 C338.570368,23.0956329 338.71867,25.818454 338.664697,28.701723 C338.056469,29.775835 336.953268,30.3862757 335.855474,30.8623276 C334.805546,31.3179116 333.762727,31.8202223 332.689767,32.2192951 C329.894563,33.2589613 326.854226,33.1892708 324.112295,34.3691167 C323.568555,34.6031489 323.113236,34.9892422 322.580711,35.2063011 C322.305837,35.3185247 322.012738,35.4022931 321.760695,35.5638392 C321.570937,35.6855479 321.762798,35.8118494 321.454979,35.8685603 C321.158476,35.9231745 321.338821,36.0300066 321.157074,36.1657932 C320.947088,36.3229463 320.814808,36.2451685 320.611832,36.4712133 C320.207582,36.9226039 319.913682,37.4647519 319.587338,37.9716553 C318.117338,40.2542682 317.421291,43.0687453 316.912598,45.7350552 C316.627811,47.2274099 316.852817,48.6430852 316.731852,50.1331436 C316.632718,51.3528269 315.800585,52.6787432 315.354478,53.8190512 C314.310758,56.4898541 313.74659,59.2750771 313.145372,62.0662907 C312.582807,64.6806822 311.544694,67.1366227 310.526308,69.5928627 C309.342397,72.4473769 309.240259,75.6139007 308.985412,78.6568188 C308.713442,81.9056133 308.367271,85.1478182 308.090294,88.3964131 C307.953608,89.9976966 307.821428,91.5999787 307.648092,93.1977677 C307.494884,94.6114462 307.099245,96.0183352 306.995003,97.4268218 C306.780111,100.324169 306.329898,103.319262 305.658685,106.158101 C305.477338,106.924097 305.121754,107.650855 305.072487,108.443309 C305.028928,109.143809 305.0821,109.847603 305.094918,110.547902 C305.117549,111.80283 304.773681,113.310361 305.270857,114.50079 C305.833523,115.847074 306.152056,117.297295 306.798536,118.602245 C307.140201,119.291062 307.53614,121.32896 308.592477,121.146447 C309.647913,120.963933 309.21933,118.937518 309.125703,118.262079 C308.946359,116.960924 308.501754,115.62103 308.720651,114.298009 C309.171265,114.961067 308.911511,116.381435 309.736434,116.771222 C311.097185,117.413912 310.719672,114.573176 310.564561,114.070966 C310.051763,112.410375 309.41019,110.895456 310.169423,109.241655 C310.465125,108.597867 310.594702,107.882491 310.700445,107.188082 C310.842839,106.259342 311.377967,107.468941 311.452369,107.763777 C311.656346,108.571208 313.215968,114.523754 314.998894,112.206296 C316.465089,110.30109 313.960582,107.669326 313.899999,105.704014 C313.859644,104.401461 313.993026,103.221915 313.429359,102.018107 C312.97504,101.046733 311.962463,100.254079 312.120978,99.0847164 C312.465747,96.5435099 313.998934,94.1693409 315.111548,91.9133861 C317.888626,86.2808377 320.202275,80.5349673 321.09509,74.2861872 C321.301871,72.8398601 321.193323,71.3209471 321.533286,69.9030752 C321.863535,68.5250408 322.311745,67.1794554 322.637188,65.7974273 C322.796304,65.1225878 322.931388,64.4092088 323.32923,63.831317 C323.650266,63.3651496 323.680207,62.7380351 323.979114,62.2378212 C324.67416,61.0751483 324.887149,59.691323 325.624653,58.5582037 C326.333618,60.7436692 326.816575,62.9578896 327.785493,65.0548941 C328.192247,65.9352107 328.673001,66.7979549 328.925344,67.7392756 C329.178789,68.6837913 329.321183,69.6623535 329.521455,70.6191499 C329.953143,72.6797118 330.274981,74.6962428 330.00962,76.8034314 C329.798933,78.4735069 329.310569,80.0966561 329.170979,81.7773149 C329.080455,82.8694986 329.244579,83.9231428 329.273919,85.0113327 C329.30446,86.1598278 328.879482,87.1914067 328.605509,88.2868852 C328.149388,90.1117175 328.085401,92.0363928 327.874014,93.8987661 C327.445531,97.6693407 326.046127,101.294044 325.254349,105.004414 C323.972505,111.008179 323.31451,117.15452 323.668491,123.293672 C323.842628,126.309133 323.877375,129.343565 324.23356,132.344848 C324.593049,135.371692 325.734402,138.023025 326.525579,140.931355 C327.324065,143.866242 327.175063,147.080292 327.209409,150.096152 C327.244858,153.233921 326.799552,156.288521 326.387892,159.389148 C325.973428,162.50615 325.649186,165.658895 325.816414,168.806349 C325.985644,171.995038 326.616603,175.143091 327.01855,178.30612 C327.419696,181.465855 327.621771,184.645159 328.016808,187.804594 C328.214978,189.385709 328.19445,190.962431 328.166111,192.552632 C328.141378,193.938454 327.793304,195.388675 327.938001,196.768707 C328.009598,197.451334 328.175123,198.00766 327.791702,198.620097 C327.508917,199.072586 327.164649,199.484439 326.84231,199.908273 C326.184014,200.773014 325.609833,201.59642 324.633705,202.133176 C323.731577,202.629197 322.66833,203.019983 321.974987,203.812537 C321.442863,204.420582 321.016583,206.289145 322.283907,206.332078 C322.902449,206.352845 323.413644,206.593367 324.014963,206.6994 C324.725129,206.824304 325.377216,206.67424 326.066955,206.515989 C327.449436,206.198987 328.489451,207.108258 329.832479,206.985651 C330.543747,206.920852 331.189125,206.564812 331.903196,206.515589 C332.538461,206.471658 333.14078,206.681529 333.794169,206.598958 C334.923907,206.456083 335.75644,206.034146 336.18322,204.934474 C336.758503,203.451904 336.348645,202.153045 335.996967,200.687848 C335.686444,199.39458 336.064859,198.054885 336.150476,196.756426 C336.253616,195.192484 335.645589,193.933362 335.404461,192.430224 C335.178153,191.015647 335.316841,189.612852 335.579699,188.213551 C336.175009,185.046528 336.779732,181.889389 337.323972,178.711783 C337.607258,177.056684 337.912674,175.403881 338.302103,173.769949 C338.648274,172.321226 339.133335,170.903553 339.38017,169.431866 C339.889463,166.400929 339.486215,163.175398 339.122119,160.149753 C338.936667,158.604981 338.723277,157.068096 338.499372,155.528715 C338.282176,154.034263 338.716968,152.963546 339.080863,151.543478 C339.476101,150.004097 339.702209,148.428972 339.93853,146.859738 C340.153623,145.428787 340.493485,144.009717 340.637882,142.56968 C340.955714,139.40735 340.939092,136.236932 341.354156,133.077197 C342.064423,127.670594 343.512093,122.422242 344.02479,116.979495 C344.251399,114.574175 344.657852,112.207394 344.94334,109.812857 C345.034865,109.046262 345.895336,108.157159 346.294379,109.28319 C346.563645,110.041198 346.428561,110.866402 346.512976,111.649471 C346.605101,112.504827 346.901605,113.322542 346.995933,114.177498 C347.074941,114.896468 347.070435,115.620431 347.087858,116.342496 C347.125309,117.882476 347.282724,119.428347 347.487302,120.954149 C347.914383,124.133752 348.730393,127.243465 349.292458,130.399206 C349.870645,133.644805 349.981095,136.928046 350.312747,140.201502 C350.61676,143.205181 351.063568,146.194783 351.507572,149.180291 C351.734381,150.704297 352.298448,152.074543 352.615981,153.560907 C352.924801,155.006935 352.368744,156.612711 352.222445,158.055744 C351.901909,161.215977 351.29278,164.419643 351.440882,167.604538 C351.584777,170.688991 352.78451,173.697063 353.330052,176.729199 C353.868785,179.724192 354.296267,182.737656 354.838505,185.731751 C355.118686,187.279519 355.586823,188.820996 355.677546,190.396421 C355.752949,191.716346 355.364721,192.92964 355.04809,194.191557 C354.708828,195.545728 354.880762,196.832107 355.040379,198.197461 C355.119788,198.880088 355.170757,199.567708 355.121189,200.254828 C355.071021,200.943446 354.794946,201.544601 354.653153,202.211553 C354.427846,203.273085 354.553116,204.863985 355.208508,205.771758 C355.397866,206.034146 356.079594,206.301925 356.383908,206.408757 C357.03209,206.6358 357.778605,206.713179 358.456628,206.590671 C359.28125,206.442005 359.697216,206.813721 360.466263,206.940022 C361.116748,207.046755 361.760223,207.01151 362.392884,206.830494 C362.915495,206.681529 363.468247,206.403865 364.020499,206.395179 C364.665076,206.384795 365.350809,206.733647 366.01281,206.778876 C366.824114,206.834588 367.37276,206.600256 368.125685,206.395179 C368.657008,206.250306 368.899237,206.52178 369.297479,206.019369 C369.943358,205.205049 369.419946,204.009228 368.653002,203.471174 C367.709118,202.809913 366.34376,202.431308 365.509425,201.600813 C364.618212,200.713308 363.794992,199.535159 363.115367,198.399044 C362.736552,197.766139 362.995704,196.609756 362.958354,195.859535 C362.921503,195.126887 362.85311,194.396534 362.792828,193.666082 C362.672364,192.203581 362.651636,190.768536 362.809952,189.308031 C363.144907,186.212895 363.265071,183.11087 363.73441,180.029911 C364.213862,176.884355 364.827797,173.757169 365.131611,170.58755 C365.431719,167.461762 365.288925,164.347357 364.927133,161.23345 C364.584366,158.282088 364.051741,155.342607 363.972734,152.367283 C363.891223,149.30869 363.906744,146.150653 364.21206,143.10414 C364.286661,142.359311 364.404221,141.641938 364.652459,140.933252 C364.828598,140.43134 364.804666,139.675229 365.100168,139.248 C365.758263,138.295796 365.880129,136.711486 366.172227,135.592145 C366.91714,132.737132 366.950686,129.743836 367.15957,126.818433 C367.611585,120.493672 367.572833,114.108606 366.469932,107.850042 C366.210979,106.38095 365.912573,104.919347 365.590035,103.463036 C365.339494,102.331614 364.956573,101.308023 364.69031,100.167016 C364.354854,98.7301736 363.914254,97.3144983 363.608038,95.8721649 C363.305226,94.4450077 363.318844,92.9801098 363.129987,91.5375767 C362.929314,89.9957996 362.571427,88.4803811 362.209435,86.969755 C362.048415,86.2983102 361.812895,85.6356516 361.846441,84.9355518 C361.879085,84.243739 362.097382,83.5716951 362.08877,82.8765874 C362.068443,81.2471481 361.587488,79.6773151 361.291385,78.0869144 C361.028828,76.6807242 361.020216,75.286615 361.183939,73.8679445 C361.348263,72.4441819 361.660988,71.0476765 361.912731,69.6383912 C362.141943,68.3541094 362.365146,67.2805965 363.034357,66.1470778 C363.253255,65.7766599 363.261666,65.4392901 363.416978,65.0591874 C363.495184,64.8668896 363.700564,64.7698421 363.77897,64.5776441 C364.025005,63.973194 364.1686,63.3096368 364.374981,62.6894115 C364.832504,61.3162694 365.234651,59.9251555 365.710999,58.5582037 C365.808332,58.8820947 365.918381,59.2021916 366.037343,59.5189938 C367.116111,62.4006652 368.408269,65.086145 369.160693,68.0896251 C369.901401,71.046079 369.859845,74.1190499 370.388965,77.114842 C371.419467,82.9482748 374.193541,88.3063546 376.743211,93.602931 C377.401607,94.9696832 378.078328,96.3459204 378.509514,97.8048278 C378.93279,99.2369772 379.007091,100.094929 378.075524,101.301633 C377.247097,102.374047 377.287952,103.612601 377.181407,104.907865 C377.069455,106.26663 376.908436,107.267657 376.290295,108.482148 C375.80894,109.427762 375.418208,110.747688 375.773391,111.799835 C376.063786,112.660183 377.105904,112.860168 377.772411,112.276286 C378.485682,111.652267 378.679846,110.591833 378.995576,109.743167 C379.222785,109.131528 379.480636,108.528376 379.583976,107.880694 C379.646261,107.490207 379.68972,106.882362 380.199714,106.834038 C380.23316,107.614412 380.514042,108.314712 380.821961,109.021301 C380.962452,109.344593 381.097336,109.67128 381.186457,110.013043 C381.293402,110.426193 381.174941,110.662023 381.165729,111.047517 C381.158519,111.349442 381.335259,111.441298 381.228114,111.774574 C381.109752,112.143295 380.910081,112.479566 380.803536,112.853179 C380.661442,113.351496 380.606368,113.872677 380.459468,114.374988 C380.245977,115.104841 379.823402,116.943751 381.207385,116.846704 C381.621048,116.817749 382.253108,114.541626 382.373372,114.659041 C382.352443,115.880422 382.073564,117.068156 381.890114,118.270666 C381.769951,119.059227 381.476852,120.162892 381.903432,120.904527 C382.465698,121.880493 383.260179,120.859997 383.482381,120.256146 C383.933995,119.030272 384.58368,117.979723 384.927648,116.707722 C385.282831,115.394885 385.930011,114.341441 385.972069,112.947232 C386.015227,111.51019 385.911887,110.101903 385.996903,108.666658 C386.037157,107.983033 385.674664,107.359912 385.512744,106.713328 C385.320582,105.947532 385.157861,105.174646 385.011762,104.399065" id="Fill-2" fill="#8DBC3A"></path>
                <path d="M231.749445,107.463817 C231.718691,107.327266 231.54056,107.241722 231.508608,107.102675 C231.343057,106.384583 231.218545,105.656909 231.075361,104.934426 C230.793186,103.511119 230.509714,102.087414 230.282856,100.653826 C230.040022,99.1233149 230.046911,97.5683483 229.830038,96.0298517 C229.612267,94.4867635 229.465687,92.9410801 229.349862,91.3870119 C229.107228,88.1340394 228.874279,84.8918473 228.489459,81.6514519 C228.119517,78.5400215 228.117819,75.3769851 227.680579,72.2809267 C227.455019,70.6850348 226.86351,69.253643 226.331512,67.7456908 C226.099762,67.0882887 225.99492,66.3910592 225.735111,65.7433394 C225.47071,65.0835417 225.217192,64.4872283 225.107457,63.7779208 C224.857534,62.1587712 224.759981,60.5425163 224.424587,58.9324502 C224.129532,57.5146337 223.771272,56.1090948 223.347111,54.7243182 C222.94352,53.4067191 222.217614,52.0395104 222.117764,50.6548335 C222.015618,49.2419081 222.328147,47.8565326 222.149916,46.4303314 C221.823208,43.8147974 221.097702,40.8563881 219.793868,38.5543828 C219.093523,37.317836 218.330673,36.3268418 217.301824,35.3692867 C216.966929,35.0574549 216.379814,34.8838712 215.977521,34.6471026 C215.754956,34.5162411 215.683164,34.2970405 215.424554,34.2009157 C215.163847,34.1040921 214.935492,34.0049727 214.685269,33.8778044 C213.268704,33.1590142 211.850043,32.5634993 210.298881,32.2010598 C208.866441,31.8663696 207.42052,31.6220149 206.009947,31.1956917 C204.68135,30.7941235 203.399682,30.2743706 202.131993,29.7123946 C201.320316,29.3525503 200.23685,29.1157817 199.778041,28.3009665 C198.770061,26.5099301 198.680396,24.4049657 199.001512,22.3705728 C199.113643,21.6602671 199.508947,21.0827195 199.543794,20.3423685 C199.557873,20.03972 199.475497,18.9963213 199.953876,19.1218925 C200.485874,19.2617376 200.660611,19.2536524 200.911233,18.7483731 C201.195904,18.1746186 201.570539,17.6913991 201.759854,17.0683344 C202.115617,15.898566 202.659697,14.3909132 202.27338,13.1736313 C202.079771,12.5637426 201.670488,12.4220009 201.048326,12.5012565 C200.947079,12.6049675 200.790415,13.3454183 200.566852,12.9826793 C200.762557,10.1641152 201.366047,6.89886511 199.565961,4.41788592 C197.773563,1.94768708 194.983769,0.109636358 191.872559,0.00492715773 C190.210664,-0.0511706216 188.510826,0.373156175 187.070198,1.20613833 C186.342395,1.62727094 185.660723,2.15141585 185.051242,2.729762 C184.628279,3.13103081 184.408111,3.63860591 183.981854,4.02829583 C182.907274,5.0102066 182.455754,7.09750315 182.400837,8.47928529 C182.382565,8.93615279 182.707575,13.0417716 182.550711,13.0560456 C182.310074,13.0780056 182.249166,12.4562385 181.805235,12.4766014 C181.482022,12.4913745 181.206837,12.650784 181.046978,12.9336686 C180.688419,13.5686116 180.821218,14.4519021 180.942036,15.1323621 C181.111281,16.0886197 181.908579,19.4874264 183.114162,19.1433534 C183.871919,18.9272471 183.597733,19.912951 183.702974,20.4686384 C183.828685,21.1308318 184.027685,21.7761559 184.165776,22.4355544 C184.433074,23.7138251 184.366773,25.0509885 184.257438,26.3445315 C184.158787,27.5138008 183.60632,28.4178535 182.560397,29.0021887 C181.497,29.5964059 180.377088,30.0268216 179.218335,30.4384715 C177.703818,30.9764912 176.326095,31.5063257 174.725008,31.7480852 C173.31733,31.9606978 171.951889,32.3701517 170.62459,32.8791242 C168.404836,33.7296743 165.82862,34.8287716 164.444806,36.7691359 C164.09683,37.2576457 163.703423,37.7246947 163.461488,38.2783857 C163.283556,38.6852444 162.881163,38.9710236 162.791797,39.391757 C162.500237,40.7630582 161.878874,42.0618915 161.555262,43.4426754 C161.232248,44.8216627 160.745782,46.3318109 160.833949,47.7571137 C160.916425,49.0930793 161.178829,50.3902157 160.708039,51.6865535 C159.664911,54.5598179 158.939605,57.4699152 158.444351,60.4830247 C158.190534,62.0302055 157.9479,63.5889651 157.512656,65.0977159 C157.100178,66.5271113 156.536527,67.9059987 156.07682,69.3194232 C155.118665,72.2653551 155.159503,75.2919401 154.816221,78.3371911 C154.095707,84.7302418 153.629509,91.1561326 152.994667,97.5588656 C152.694319,100.586049 152.286434,103.662044 151.565721,106.621352 C151.373211,107.410913 151.087541,108.099658 151.028231,108.921261 C150.980203,109.582955 150.966125,110.246646 150.970817,110.910037 C150.979504,112.104261 150.92239,113.450807 151.304215,114.59652 C151.759828,115.965326 152.178097,117.451118 152.845991,118.730587 C153.135354,119.285775 153.739044,121.490757 154.59106,121.254987 C155.647567,120.962819 155.465841,119.70042 155.355008,118.86574 C155.179573,117.540056 154.732647,116.148192 154.816221,114.805838 C155.355008,115.325491 155.197745,117.476372 156.491595,116.754787 C157.262932,116.324471 156.861437,114.905756 156.697285,114.252946 C156.356898,112.90081 155.51996,111.33107 156.020405,109.920241 C156.200434,109.412766 156.580062,109.022776 156.715857,108.493241 C156.846061,107.985466 156.818203,107.373581 157.223991,106.982694 C157.814001,108.412788 158.109356,109.957673 158.720535,111.382077 C159.1418,112.363988 160.514331,113.322741 161.25791,112.02271 C162.01397,110.70022 161.27089,109.028765 160.665103,107.822264 C159.826568,106.151808 160.421371,104.517086 160.113635,102.76997 C159.991319,102.076134 159.382737,101.184559 159.030667,100.578364 C158.51175,99.6841929 158.706556,99.0013371 159.02887,98.0768218 C159.650233,96.2939705 160.344986,94.6444762 161.178529,92.9457715 C162.931087,89.3736805 164.810055,85.8076785 166.144443,82.0521218 C167.156318,79.205409 167.688516,76.2422085 168.024609,73.2463675 C168.121663,72.3803456 168.020515,71.4916649 168.179975,70.634427 C168.281921,70.0887213 168.579772,69.5290412 168.739531,68.9928183 C169.113567,67.7361082 169.49649,66.4745071 169.950306,65.2439494 C170.209216,64.5405312 170.491091,63.8419042 170.828982,63.1721247 C171.24795,62.3412387 171.253142,63.3577864 171.396426,63.8132564 C171.71235,64.8159294 171.959377,65.7613067 172.409599,66.7387257 C173.061316,68.1549451 172.894268,69.6765724 172.797714,71.1931089 C172.702757,72.6920775 172.864213,74.1934418 172.755278,75.6892162 C172.636956,77.3142551 172.155382,78.8797025 171.865819,80.4763931 C171.596724,81.9584924 171.689784,83.3667263 171.787237,84.8576097 C171.889982,86.4295453 171.290885,87.7916633 170.961482,89.3074013 C170.649053,90.7454809 170.426688,92.1992319 170.157693,93.6454965 C169.580663,96.7468452 168.411126,99.7922959 168.070939,102.929978 C167.892808,104.572985 167.532551,106.184947 167.337545,107.825258 C167.160412,109.311051 167.160612,110.817007 167.072345,112.310086 C166.691019,118.752946 167.197955,125.211577 168.060056,131.598938 C168.274033,133.180756 168.513472,134.789125 168.968886,136.322731 C169.371579,137.679359 169.950905,138.975097 170.324242,140.341508 C171.142709,143.33655 171.338813,146.38789 171.442057,149.474066 C171.5467,152.591685 171.293381,155.53612 170.87631,158.623095 C170.459339,161.710869 170.183255,164.827889 170.31256,167.945408 C170.565978,174.042897 171.736414,180.156757 172.590326,186.192958 C172.819481,187.813305 173.113438,189.425268 173.31094,191.050406 C173.495462,192.562451 173.426166,194.02848 173.441144,195.544218 C173.449531,196.393271 173.683079,197.148594 173.838844,197.972992 C173.499755,198.46819 173.190721,198.982952 172.857923,199.481743 C172.224178,200.430414 171.457734,201.326482 170.457342,201.900536 C169.546115,202.423283 168.462549,202.845913 167.777282,203.676599 C167.212234,204.361551 167.064357,205.825883 167.975683,206.317287 C168.275631,206.478893 168.510477,206.157279 168.74023,206.389556 C168.93923,206.590589 169.236183,206.592087 169.501183,206.638901 C170.147309,206.753992 170.777958,206.802304 171.426281,206.673838 C172.067215,206.546869 172.758373,206.274665 173.415882,206.449846 C174.056316,206.620235 174.643032,206.890243 175.309527,206.974889 C176.556148,207.132901 177.61585,206.399138 178.876051,206.573421 C179.948734,206.72205 180.701998,206.548766 181.544029,205.917117 C181.815719,205.713388 181.888509,205.85513 182.05416,205.505566 C182.177374,205.245341 182.300488,204.989307 182.386858,204.71351 C182.596243,204.045727 182.606926,203.349595 182.529244,202.659652 C182.371382,201.25601 182.218412,199.983229 182.353708,198.566111 C182.497392,197.065047 182.686506,195.752139 182.423203,194.246982 C182.16669,192.783149 182.0935,191.435105 182.335735,189.960992 C182.854453,186.803246 183.551802,183.656679 184.17037,180.516302 C184.783545,177.404073 185.602111,174.349838 186.280089,171.254179 C186.963259,168.135162 187.113633,165.078832 186.734005,161.909207 C186.549383,160.367616 186.295067,158.835009 186.119332,157.29222 C185.964465,155.935293 185.758775,154.819726 186.192921,153.492045 C186.660316,152.063348 186.632258,150.560387 187.126314,149.143868 C187.339392,148.532183 187.260911,147.838347 187.38762,147.204103 C187.525512,146.51436 187.696754,145.831604 187.80499,145.135871 C188.291956,141.997091 188.297947,138.799218 188.648519,135.643768 C188.982016,132.643235 189.469681,129.663166 189.972523,126.687787 C190.496433,123.590232 190.860984,120.559454 191.018945,117.422071 C191.097427,115.864509 191.224436,114.333998 191.225734,112.773142 C191.226632,111.386369 191.670363,110.247045 191.89832,108.908285 C192.434511,109.632365 192.260773,110.77119 192.282441,111.619844 C192.306405,112.55514 192.298516,113.491433 192.283839,114.427228 C192.253684,116.358309 192.187184,118.291287 192.259276,120.221869 C192.412445,124.308523 193.342742,128.42023 193.87504,132.472946 C194.14044,134.493065 194.473538,136.481342 194.653766,138.515136 C194.833795,140.551725 194.990858,142.592007 195.276427,144.617716 C195.555207,146.59651 195.970082,148.549252 196.292496,150.519362 C196.443168,151.44208 196.4888,152.376378 196.776766,153.271946 C197.053049,154.130781 197.254845,154.863945 197.15859,155.773388 C196.856246,158.629983 196.262441,161.425688 196.135333,164.30564 C196.000136,167.370556 196.414012,170.200699 197.256542,173.138346 C198.129426,176.181101 198.497372,179.398239 199.146593,182.497791 C199.496765,184.168447 199.831061,185.841298 200.15727,187.517045 C200.433952,188.938754 200.791713,190.378531 200.807789,191.834777 C200.824963,193.422085 200.351077,194.922551 200.471895,196.534713 C200.573342,197.894336 200.970743,199.368449 200.773541,200.728671 C200.41598,203.195875 199.89157,206.185627 203.149259,206.598675 C203.755545,206.675535 204.314103,206.467414 204.900919,206.51892 C205.53017,206.57362 206.073351,206.944445 206.726467,206.992357 C208.080126,207.091776 209.287007,206.183032 210.617301,206.48049 C211.418394,206.659464 212.160275,206.828456 212.990224,206.757485 C213.592316,206.705879 214.057216,206.399537 214.655214,206.400336 C215.743274,206.402233 215.771032,204.804943 215.378124,204.065191 C214.746776,202.878354 213.252429,202.475388 212.198518,201.791235 C211.183448,201.132136 210.475415,200.007685 209.758596,199.057815 C208.99285,198.042765 209.341425,196.740738 209.370581,195.519164 C209.403431,194.139977 209.471429,192.760091 209.634183,191.389588 C210.378062,185.120512 211.552292,178.907034 212.332316,172.644146 C212.726522,169.476917 212.844843,166.312783 212.636657,163.126689 C212.431866,159.99789 211.767667,156.91371 211.615197,153.786209 C211.465522,150.715804 211.519841,147.530408 211.942903,144.483061 C212.343299,141.598617 213.512137,138.975197 214.070995,136.13667 C216.537277,123.614188 217.223243,110.292163 213.972443,97.8344634 C213.217781,94.9428325 212.963864,91.9293237 212.153985,89.0618488 C211.71924,87.5229529 211.289787,86.2426858 211.431374,84.6195435 C211.556985,83.1810646 211.503565,81.8410065 211.235769,80.4193969 C210.939915,78.84816 210.536423,77.2907978 210.439369,75.6892162 C210.348407,74.1926432 210.509364,72.6972681 210.388846,71.1995971 C210.258941,69.5841408 210.167379,68.1429669 210.816002,66.6206408 C211.331624,65.4109451 211.714847,64.1792894 212.124928,62.9312636 C212.834659,64.2743163 213.272099,65.7449365 213.720024,67.1899035 C214.120021,68.4804519 214.710331,69.7705012 214.894054,71.1156501 C215.269388,73.8681345 215.257506,76.6209185 215.94497,79.3427588 C216.644615,82.1120127 217.859384,84.737229 219.109799,87.2928722 C220.364108,89.8574989 221.380476,92.616771 222.814614,95.0836759 C223.427091,96.1377551 223.772869,97.3987573 224.105867,98.5759123 C224.25015,99.0861825 224.39583,99.6734125 224.211308,100.193664 C223.996332,100.799461 223.538722,101.319114 223.274421,101.910137 C222.724949,103.139197 223.020504,104.392513 222.96948,105.689949 C222.927244,106.769282 222.519758,107.624025 221.997246,108.547143 C221.49051,109.442511 221.188665,110.728568 221.562501,111.73184 C221.900692,112.638887 222.968282,112.936744 223.703075,112.27505 C224.347803,111.694508 224.622289,110.708005 224.877205,109.907264 C225.009605,109.492021 225.371759,106.933483 225.970456,106.982694 C225.990526,108.341418 227.036949,109.384617 227.090268,110.708005 C227.111936,111.241334 227.116529,112.025205 226.835053,112.498143 C226.499359,113.062016 226.576343,113.6194 226.374348,114.222102 C226.139002,114.924322 225.963667,115.569746 226.208198,116.301214 C226.350883,116.728435 226.742393,117.16484 227.236448,116.916393 C227.559261,116.754388 227.966048,114.76082 228.258008,114.926119 C227.999598,116.065743 227.837043,117.293306 227.651822,118.453492 C227.533001,119.197736 227.287072,120.446061 227.869793,121.068926 C228.688659,121.943931 229.291151,120.56744 229.508323,119.965736 C229.877966,118.941303 230.441816,118.024374 230.786496,116.965503 C231.267671,115.488994 231.977002,114.352764 231.969912,112.755175 C231.96462,111.405335 231.914496,110.045513 231.884441,108.695872 C231.875654,108.282126 231.840308,107.868679 231.749445,107.463817" id="Fill-5" fill="#019441"></path>
                <path d="M80.4284656,106.260324 C79.7598075,103.305266 79.0317375,100.404924 79.0728382,97.3619005 C79.0928413,95.8820748 78.6498889,94.4110357 78.5371355,92.9341056 C78.4248798,91.4679589 78.3436735,89.9990166 78.2673436,88.5306733 C78.0978653,85.2631951 77.8952477,82.0071993 77.5481306,78.7534002 C77.2178321,75.6599545 77.1796173,72.4849343 76.2774912,69.4889389 C75.8663844,68.1232378 75.2557451,66.815947 74.8720056,65.4459526 C74.4799066,64.045505 74.4580128,62.5638821 74.2626599,61.1291871 C73.8412033,58.0324465 72.9109138,55.132204 72.1139776,52.1283207 C71.7255608,50.6645703 72.0104794,49.2165958 72.0772557,47.7347732 C72.1432358,46.2795098 71.809056,44.8418194 71.4781603,43.4344824 C70.8256241,40.6611448 70.0408291,37.7529145 68.0826233,35.6037176 C66.1810429,33.5170247 63.281302,32.1659012 60.667674,31.2300396 C59.1947155,30.7026501 57.6654301,30.4247772 56.1676917,29.9875492 C54.838337,29.599246 53.5842175,28.9997673 52.2578482,28.6065716 C51.5445068,28.3952963 50.7900646,28.1923083 50.1855954,27.736409 C49.8786834,27.5051644 49.5972479,26.7819759 49.2667503,26.6987039 C48.9469011,26.6183274 48.6337195,25.5377881 48.5210657,25.2475342 C48.2881947,24.6461585 48.1750433,24.0256122 48.1972357,23.3799046 C48.2256977,22.5549724 48.4513039,21.7591955 48.6479505,20.9632188 C48.7653811,20.4886482 48.7157219,19.6935702 48.9415271,19.2744144 C49.0475132,19.077517 49.2919282,19.2192991 49.449962,19.1891454 C49.63188,19.1541991 49.7115935,18.9439223 49.7891176,18.804237 C50.1253873,18.1985679 50.4939006,17.6286438 50.763593,16.986331 C51.2225677,15.8939099 51.8845581,13.7567945 51.0625436,12.6806484 C50.9180441,12.4911397 50.1777335,12.2628905 49.9918348,12.4933363 C49.9126189,12.5914855 49.7385628,13.2480764 49.540722,12.9260712 C49.8899289,9.853194 50.1108577,6.58851155 48.207088,3.94717107 C46.4408514,1.49713656 43.4877691,-0.0410992971 40.4684082,0.00083625148 C37.4937307,0.0419730277 34.6249398,1.62284336 32.9472738,4.07946774 C32.0656482,5.3705834 31.5424848,6.86688371 31.4389866,8.4289829 C31.333697,10.0161436 31.6936518,11.5816375 31.6614082,13.1668013 C31.1010251,12.097944 29.9615498,12.3239966 29.8834285,13.548914 C29.8002319,14.8540082 30.087937,16.4863993 30.764855,17.597292 C31.0273822,18.0282297 31.3020505,19.0718257 31.8630306,19.1375248 C32.5599517,19.2186002 32.3835071,19.8024029 32.47367,20.3591472 C32.7122134,21.8313845 33.2759801,23.2626847 32.8924396,24.7640772 C32.5985644,25.9141097 31.9012453,27.2610396 30.8207839,27.8387517 C29.5549213,28.5155116 28.0310098,28.9130007 26.6867274,29.4233164 C25.336474,29.9361282 23.9727857,30.2844928 22.5674991,30.6050002 C20.3138259,31.1187107 18.1952974,31.9599178 16.2117146,33.1440978 C14.5399201,34.1421639 13.2778392,35.165591 12.2331045,36.798681 C11.0971122,38.5740524 10.4086502,40.466444 9.85065558,42.5067083 C9.43994686,44.0080009 9.19125263,45.5614135 9.11621644,47.1167231 C9.0517291,48.4513718 9.3889939,49.824162 9.17005541,51.1422362 C8.65594801,54.2386772 7.47716324,57.2241888 6.92613485,60.3269201 C6.66798646,61.778589 6.67644544,63.2499277 6.31738631,64.6864199 C5.96668664,66.0889643 5.45884885,67.4458789 5.01380659,68.8197673 C4.03435537,71.844219 3.67310685,74.9653221 3.43317016,78.1237678 C3.18547111,81.3815609 2.99389992,84.6433478 2.79745238,87.9041362 C2.61234983,90.9794098 2.08341433,94.0291227 1.91144809,97.0963086 C1.75470803,99.8983022 1.63707835,102.694605 0.807898549,105.407735 C0.607868377,106.06173 0.599210354,106.700248 0.36504568,107.342162 C0.111276059,108.038491 0.0533568744,108.804714 0.0296717098,109.539485 C-0.0143150246,110.896499 -0.0208831795,112.290257 0.0906759364,113.644076 C0.198254352,114.948771 0.971306282,116.181177 1.34111331,117.44154 C1.67499451,118.580589 2.33409891,119.718141 2.90513032,120.75305 C3.23453324,121.350732 3.87482882,121.433005 4.33887892,120.923189 C4.74520886,120.476875 4.73854119,119.84894 4.67634276,119.286504 C4.51781138,117.850911 3.93145428,116.475325 3.9424012,115.018963 C4.42386686,115.426237 4.38475648,117.507938 5.48890313,116.839465 C6.64012156,116.142936 5.96181029,114.429469 5.65450025,113.469744 C5.28280239,112.309028 4.75426496,110.873235 5.33047127,109.691251 C5.53915947,109.263409 5.8345274,108.876603 5.9738519,108.415812 C6.10013961,107.997554 6.14054371,107.521985 6.46218427,107.19349 C6.97430132,108.682701 7.15034777,112.151171 9.12348122,112.579213 C10.2697238,112.827831 10.7761683,111.695371 10.7693016,110.737344 C10.7609421,109.579523 10.2329023,108.56009 9.81811336,107.509904 C9.31176832,106.227774 9.40690705,105.115384 9.4868196,103.772348 C9.55837269,102.570495 9.12387929,101.73428 8.62241061,100.687789 C7.626539,98.6101819 9.13054696,96.2688803 10.0921845,94.4417884 C10.7049138,93.2775777 11.263207,92.0925989 11.823789,90.9026278 C12.0821365,90.3543704 12.3501371,89.8110055 12.5994284,89.2585546 C12.7693048,88.8819334 12.8837499,88.2364255 13.1827005,87.9416785 C13.8482735,87.2850877 14.181259,86.2769371 14.5671879,85.4035794 C15.0747272,84.2551444 15.5753997,83.1023162 16.003524,81.9212315 C16.9164975,79.4023028 17.3552702,76.7594647 17.6781049,74.1077401 C17.9749656,71.66789 18.3746279,69.5344689 19.5417691,67.3433365 C19.5928216,69.2338309 19.0129331,71.0613222 18.7302039,72.9131761 C18.4491665,74.7540468 18.1412594,76.5685581 17.7963317,78.398246 C17.485041,80.0482101 17.1787261,81.8265769 17.118518,83.5036993 C17.0901555,84.2894916 17.2360482,85.0183714 17.3510904,85.7893864 C17.468322,86.5740804 17.1437955,87.2258787 16.9214734,87.9552577 C15.1761355,93.6839531 13.5939068,99.6187319 13.319537,105.630892 C13.0234725,112.114826 13.0801974,118.472955 13.970481,124.918748 C14.4031831,128.051034 14.829516,131.207383 15.3938798,134.318901 C15.935653,137.304113 17.2586387,140.061275 17.9135633,143.021026 C19.3470134,149.49907 18.392143,155.833834 17.9281924,162.346225 C17.4580717,168.944883 18.6112805,175.319386 19.566549,181.8168 C20.0347788,185.001705 20.6570617,188.108031 21.4206595,191.233827 C21.790566,192.7482 21.9995528,194.201466 22.1296221,195.750785 C22.183063,196.387606 22.364583,196.98349 22.5538652,197.590158 C22.7413562,198.190535 22.1935124,198.609491 21.8484852,199.082365 C20.9939285,200.254563 20.0138801,201.262714 18.7655326,202.014059 C17.7068655,202.651279 16.4105505,203.377463 16.276799,204.751152 C16.2135059,205.401353 16.3759184,206.453236 17.2395313,206.337314 C17.7445826,206.269519 18.1273269,206.610095 18.6583523,206.676793 C19.9944742,206.844135 21.2922819,206.226585 22.6011361,206.481193 C23.4223545,206.640848 24.1667453,207.027054 25.0226953,206.998498 C25.6987177,206.975833 26.2960217,206.726816 26.9417908,206.565663 C28.1484405,206.263727 29.564674,206.901148 30.6424485,206.094687 C32.6018485,204.62874 31.3391705,201.01799 31.6622043,199.021159 C31.9034347,197.530749 32.0539052,196.102345 32.0239504,194.587772 C31.9972797,193.225167 31.9302049,191.885126 32.2306483,190.545385 C32.9256785,187.446748 33.6371291,184.352204 34.3509681,181.25766 C35.0565471,178.198162 35.6848011,175.13507 36.4416317,172.086156 C37.228218,168.917625 37.5412005,165.729425 37.2642433,162.470833 C37.1208386,160.782628 36.8679647,159.106005 36.6216588,157.430081 C36.4196383,156.055993 36.5581667,154.865522 36.7091347,153.499522 C36.8827928,151.928536 37.4257602,150.54027 37.7610347,149.008724 C38.0756095,147.571233 38.2240896,146.104387 38.382422,144.643433 C38.7356096,141.384541 39.1012368,138.126249 39.4246687,134.864063 C39.74203,131.661285 39.8238334,128.400197 40.5411555,125.252335 C41.0437189,129.073562 41.3319216,132.918553 41.8367738,136.740679 C42.3253052,140.437796 42.5694217,144.171857 43.1341835,147.857293 C43.3720303,149.410406 43.9829682,150.857981 44.2264875,152.406901 C44.4505014,153.833209 44.5539996,155.301951 44.4866263,156.744734 C44.3385442,159.925545 43.5678807,163.037363 43.6811316,166.238443 C43.7914966,169.363041 44.7227813,172.390588 45.4550311,175.408649 C46.2215148,178.568593 46.8505649,181.76478 47.482302,184.953779 C48.073834,187.940489 48.9652123,190.912621 48.9962617,193.973417 C49.0122841,195.529026 49.1348896,197.05558 49.3427817,198.596911 C49.5328601,200.006145 49.4322479,201.247637 49.3016809,202.654574 C49.1825585,203.938801 49.3768166,205.600746 50.6920399,206.224687 C51.8393772,206.76945 53.2092355,206.296178 54.4159847,206.688774 C55.9653726,207.1926 57.0053305,206.672998 58.5340188,206.450341 C59.8166003,206.263328 61.0789798,206.865003 62.3937055,206.71783 C62.7842121,206.673997 63.1145107,206.467115 63.4939709,206.413597 C63.736296,206.37945 64.0302707,206.449542 64.2586634,206.328128 C64.6886785,206.099779 64.7756568,205.182489 64.7380392,204.760737 C64.68838,204.204392 64.412617,203.691481 63.9935488,203.327141 C63.6436453,203.022709 63.1998967,202.571003 62.8057079,202.354136 C62.0433044,201.934481 60.7484822,201.337998 60.4604785,200.636576 C60.0586269,199.65808 58.1123632,198.818171 58.5788017,197.54992 C58.8312776,196.862976 58.7439012,196.068397 58.7874899,195.349602 C58.8293867,194.66106 58.9450261,193.983002 59.0777824,193.307141 C59.3565309,191.886324 59.7476347,190.498957 60.133265,189.105299 C60.9717994,186.073758 61.1491396,182.87128 61.6518025,179.771144 C62.1736723,176.55319 62.7635125,173.340428 63.0924178,170.095016 C63.423413,166.830233 63.3446947,163.609583 62.9812568,160.352289 C62.2894111,154.152917 61.8139165,147.703629 63.4808346,141.594419 C63.8997038,140.058879 64.4929276,138.579353 64.8988595,137.038621 C65.2911574,135.550707 65.5911032,134.03973 65.862786,132.525257 C66.4386937,129.313194 67.0101232,126.092644 67.3957535,122.850926 C68.1681088,116.358504 68.3502258,109.853502 67.5956842,103.349798 C67.2259766,100.163794 66.6584284,97.0007555 65.9086635,93.8829473 C65.5489078,92.3859481 65.0620682,90.9218982 64.6500657,89.4393767 C64.2871254,88.1342825 63.7251501,86.9733668 63.8496465,85.5833032 C63.9950415,83.9587 64.0672912,82.5632447 63.7584884,80.9448321 C63.4838201,79.5071417 63.2153219,78.0688522 63.019372,76.6178823 C62.8080963,75.0540857 62.6401108,73.4840986 62.3179727,71.9375755 C62.0331536,70.5688791 61.4388351,69.1163116 61.7803791,67.7046811 C62.1646162,68.9406815 62.8079968,70.0716433 63.0136,71.363358 C63.2009914,72.53975 63.1630753,73.7419024 63.289761,74.9259826 C63.548606,77.3445654 64.1991519,79.7519654 65.0538082,82.0238737 C65.9598155,84.4323721 67.1590014,86.7062773 68.3207687,88.9966571 C69.3882929,91.1014223 70.3042519,93.2696898 71.3412243,95.3952231 C71.8749366,96.4897409 72.349237,97.6194047 72.6284831,98.8083773 C72.7603438,99.3693152 72.8724005,99.8226185 72.5977322,100.359893 C72.3349065,100.873903 72.0255066,101.354065 71.8467731,101.908113 C71.4810463,103.040772 71.6749064,104.203785 71.6944119,105.366798 C71.7134197,106.51034 71.3614263,107.40836 70.876378,108.419306 C70.4374063,109.3345 70.0341614,110.427719 70.264644,111.455939 C70.455618,112.309028 71.2952472,112.86048 72.1393546,112.497139 C74.0905942,111.657829 73.4256183,108.665827 74.6198282,107.313506 C74.9889386,107.834705 74.9181817,108.53403 75.2996323,109.04814 C75.6386884,109.505337 75.8948464,109.894439 75.952268,110.483134 C76.0756697,111.742698 75.505733,113.019137 75.1175153,114.188939 C74.8787728,114.908233 74.4610978,116.823789 75.7099429,116.931124 C76.295902,116.981447 76.5583296,116.444472 76.6645148,115.960815 C76.6668037,115.949633 76.8410588,115.162842 76.9513242,115.240822 C77.174741,115.39818 76.9248525,116.297598 76.8898224,116.503382 C76.7432331,117.358068 75.3914869,121.537644 77.4096023,121.287329 C78.0426331,121.20895 78.4162218,120.279079 78.5146446,119.734615 C78.5827146,119.359392 79.1380222,118.937041 79.2946627,118.530167 C79.7624945,117.315933 80.2153986,116.072544 80.6311827,114.840038 C81.0790115,113.512678 81.0026816,111.973643 80.9819819,110.59027 C80.9600881,109.116135 80.7533902,107.695818 80.4284656,106.260324" id="Fill-8" fill="#E5322C"></path>
                <path d="M124.32343,92.0288933 L110.768523,105.353475 C109.906267,106.201517 108.508267,106.201517 107.64643,105.353475 C106.784523,104.506187 106.784523,103.131968 107.64643,102.284749 L119.64043,90.4945304 L107.646779,78.7047229 C106.784872,77.8570924 106.784872,76.4830105 107.646779,75.6357229 C108.508686,74.7880924 109.906616,74.7880924 110.768872,75.6357229 L124.323779,88.9605105 C124.754733,89.3843601 124.969965,89.9392738 124.969965,90.4944618 C124.969965,91.0499242 124.754314,91.6052494 124.32343,92.0288933 L124.32343,92.0288933 Z" id="Shape-Copy" fill="#D4D4D4"></path>
                <path d="M275.293395,92.0288933 L261.738488,105.353475 C260.876233,106.201517 259.478233,106.201517 258.616395,105.353475 C257.754488,104.506187 257.754488,103.131968 258.616395,102.284749 L270.610395,90.4945304 L258.616744,78.7047229 C257.754837,77.8570924 257.754837,76.4830105 258.616744,75.6357229 C259.478651,74.7880924 260.876581,74.7880924 261.738837,75.6357229 L275.293744,88.9605105 C275.724698,89.3843601 275.93993,89.9392738 275.93993,90.4944618 C275.93993,91.0499242 275.724279,91.6052494 275.293395,92.0288933 L275.293395,92.0288933 Z" id="Shape-Copy-2" fill="#D4D4D4"></path>
            </g>
        </g>
    </g>
</svg>