<?xml version="1.0" encoding="UTF-8" standalone="no"?>
<svg width="383px" height="207px" viewBox="0 0 383 207" version="1.1" xmlns="http://www.w3.org/2000/svg" xmlns:xlink="http://www.w3.org/1999/xlink">
    <!-- Generator: sketchtool 3.6.1 (26313) - http://www.bohemiancoding.com/sketch -->
    <title>Group</title>
    <desc>Created with sketchtool.</desc>
    <defs></defs>
    <g id="Page-1" stroke="none" stroke-width="1" fill="none" fill-rule="evenodd">
        <g id="My-Genetics" transform="translate(-176.000000, -2525.000000)">
            <g id="Group" transform="translate(176.000000, 2525.000000)">
                <path d="M230.981727,104.399065 C230.382211,101.208778 229.871416,97.9756593 229.541067,94.746434 C228.892985,88.4066969 228.119833,82.0213315 227.89703,75.6504433 C227.789984,72.5830637 226.879245,69.7869577 225.798875,66.9379349 C224.689065,64.0134308 224.350404,60.9978697 223.697015,57.9606427 C223.365564,56.4207626 222.888314,54.9160273 222.227515,53.4843771 C221.653033,52.2395334 220.819299,51.0500028 220.692727,49.6516003 C220.568758,48.2810541 220.505772,47.016741 220.160903,45.6745503 C219.79871,44.2628687 219.409481,42.8538829 218.91631,41.48124 C218.406215,40.060972 217.719781,38.7159856 216.820658,37.499697 C216.132021,36.5680611 215.342046,35.8334155 214.302131,35.2546251 C213.050928,34.5583194 211.737141,33.8995546 210.339339,33.5652799 C208.88526,33.2174266 207.397235,33.0389071 205.940854,32.7016371 C204.451827,32.3569788 203.14545,31.6924231 201.765572,31.06441 C200.753495,30.6039337 199.471451,30.1420595 198.851407,29.1542119 C198.163471,28.0584339 198.49392,26.2954045 198.564416,25.0751222 C198.636915,23.8201943 198.799636,22.5752507 199.018134,21.3376955 C199.145407,20.6122356 199.286799,19.8894714 199.422985,19.1657088 C199.54455,18.519025 199.744322,18.9724125 200.145267,19.1565232 C200.96318,19.5324325 201.66844,17.2110805 201.873519,16.6595472 C202.283878,15.558777 202.68232,14.1714572 202.181939,13.0349432 C201.992781,12.6055181 201.690871,12.3006971 201.189689,12.487204 C200.96278,12.571871 200.860841,12.9965036 200.654861,13.0249589 C200.577255,12.9830248 200.549518,12.9115372 200.572549,12.8103961 C200.66137,11.0556537 201.061214,9.28603463 200.766313,7.53019393 C200.513268,6.02286269 199.781272,4.55157481 198.782213,3.39768814 C196.675146,0.964711549 193.443048,-0.397647511 190.220763,0.102865935 C187.466015,0.530693606 184.944884,2.21474712 183.532462,4.61587376 C182.821395,5.8252732 182.411337,7.19671798 182.34054,8.59691757 C182.3109,9.19108384 182.930042,12.8023088 182.512074,13.0222632 C182.503061,13.0270556 182.103918,12.5213503 182.0172,12.4725271 C181.669627,12.2771341 181.260971,12.517756 181.100152,12.812992 C180.525971,13.8666362 180.830185,15.1905557 181.165742,16.2686615 C181.34108,16.8313772 182.177619,19.4293944 182.966292,19.1787882 C183.169769,19.1140899 183.412399,18.757051 183.628393,18.7883019 C183.886945,18.825743 183.86882,20.0310489 183.922593,20.2770623 C184.540334,23.0956329 184.688635,25.818454 184.634662,28.701723 C184.026434,29.775835 182.923233,30.3862757 181.825439,30.8623276 C180.775511,31.3179116 179.732692,31.8202223 178.659732,32.2192951 C175.864528,33.2589613 172.824191,33.1892708 170.08226,34.3691167 C169.53852,34.6031489 169.083201,34.9892422 168.550676,35.2063011 C168.275802,35.3185247 167.982703,35.4022931 167.73066,35.5638392 C167.540902,35.6855479 167.732763,35.8118494 167.424944,35.8685603 C167.128441,35.9231745 167.308786,36.0300066 167.127039,36.1657932 C166.917053,36.3229463 166.784773,36.2451685 166.581797,36.4712133 C166.177547,36.9226039 165.883647,37.4647519 165.557303,37.9716553 C164.087303,40.2542682 163.391256,43.0687453 162.882564,45.7350552 C162.597776,47.2274099 162.822782,48.6430852 162.701818,50.1331436 C162.602683,51.3528269 161.77055,52.6787432 161.324443,53.8190512 C160.280723,56.4898541 159.716555,59.2750771 159.115337,62.0662907 C158.552772,64.6806822 157.514659,67.1366227 156.496274,69.5928627 C155.312363,72.4473769 155.210224,75.6139007 154.955377,78.6568188 C154.683407,81.9056133 154.337236,85.1478182 154.060259,88.3964131 C153.923573,89.9976966 153.791393,91.5999787 153.618057,93.1977677 C153.464849,94.6114462 153.06921,96.0183352 152.964968,97.4268218 C152.750076,100.324169 152.299863,103.319262 151.62865,106.158101 C151.447303,106.924097 151.09172,107.650855 151.042452,108.443309 C150.998893,109.143809 151.052066,109.847603 151.064883,110.547902 C151.087514,111.80283 150.743646,113.310361 151.240822,114.50079 C151.803488,115.847074 152.122021,117.297295 152.768501,118.602245 C153.110166,119.291062 153.506105,121.32896 154.562442,121.146447 C155.617878,120.963933 155.189295,118.937518 155.095668,118.262079 C154.916324,116.960924 154.471719,115.62103 154.690617,114.298009 C155.14123,114.961067 154.881476,116.381435 155.706399,116.771222 C157.06715,117.413912 156.689637,114.573176 156.534526,114.070966 C156.021728,112.410375 155.380155,110.895456 156.139388,109.241655 C156.43509,108.597867 156.564667,107.882491 156.670411,107.188082 C156.812804,106.259342 157.347932,107.468941 157.422334,107.763777 C157.626311,108.571208 159.185933,114.523754 160.968859,112.206296 C162.435055,110.30109 159.930547,107.669326 159.869964,105.704014 C159.829609,104.401461 159.962991,103.221915 159.399324,102.018107 C158.945006,101.046733 157.932428,100.254079 158.090943,99.0847164 C158.435713,96.5435099 159.968899,94.1693409 161.081513,91.9133861 C163.858592,86.2808377 166.17224,80.5349673 167.065055,74.2861872 C167.271836,72.8398601 167.163288,71.3209471 167.503251,69.9030752 C167.8335,68.5250408 168.28171,67.1794554 168.607153,65.7974273 C168.76627,65.1225878 168.901353,64.4092088 169.299195,63.831317 C169.620232,63.3651496 169.650172,62.7380351 169.949079,62.2378212 C170.644125,61.0751483 170.857115,59.691323 171.594618,58.5582037 C172.303583,60.7436692 172.78654,62.9578896 173.755458,65.0548941 C174.162212,65.9352107 174.642966,66.7979549 174.895309,67.7392756 C175.148754,68.6837913 175.291148,69.6623535 175.491421,70.6191499 C175.923108,72.6797118 176.244946,74.6962428 175.979585,76.8034314 C175.768898,78.4735069 175.280534,80.0966561 175.140944,81.7773149 C175.050421,82.8694986 175.214544,83.9231428 175.243884,85.0113327 C175.274425,86.1598278 174.849447,87.1914067 174.575474,88.2868852 C174.119354,90.1117175 174.055367,92.0363928 173.843979,93.8987661 C173.415496,97.6693407 172.016092,101.294044 171.224314,105.004414 C169.94247,111.008179 169.284475,117.15452 169.638456,123.293672 C169.812593,126.309133 169.847341,129.343565 170.203525,132.344848 C170.563014,135.371692 171.704367,138.023025 172.495544,140.931355 C173.294031,143.866242 173.145028,147.080292 173.179375,150.096152 C173.214823,153.233921 172.769517,156.288521 172.357857,159.389148 C171.943393,162.50615 171.619152,165.658895 171.786379,168.806349 C171.955609,171.995038 172.586568,175.143091 172.988515,178.30612 C173.389661,181.465855 173.591736,184.645159 173.986773,187.804594 C174.184943,189.385709 174.164415,190.962431 174.136076,192.552632 C174.111343,193.938454 173.763269,195.388675 173.907966,196.768707 C173.979563,197.451334 174.145089,198.00766 173.761667,198.620097 C173.478882,199.072586 173.134614,199.484439 172.812275,199.908273 C172.153979,200.773014 171.579798,201.59642 170.60367,202.133176 C169.701542,202.629197 168.638295,203.019983 167.944952,203.812537 C167.412828,204.420582 166.986548,206.289145 168.253872,206.332078 C168.872414,206.352845 169.38361,206.593367 169.984928,206.6994 C170.695094,206.824304 171.347181,206.67424 172.03692,206.515989 C173.419401,206.198987 174.459416,207.108258 175.802444,206.985651 C176.513712,206.920852 177.15909,206.564812 177.873161,206.515589 C178.508426,206.471658 179.110745,206.681529 179.764135,206.598958 C180.893872,206.456083 181.726405,206.034146 182.153185,204.934474 C182.728468,203.451904 182.31861,202.153045 181.966932,200.687848 C181.656409,199.39458 182.034824,198.054885 182.120441,196.756426 C182.223581,195.192484 181.615554,193.933362 181.374426,192.430224 C181.148118,191.015647 181.286806,189.612852 181.549664,188.213551 C182.144974,185.046528 182.749697,181.889389 183.293938,178.711783 C183.577223,177.056684 183.882639,175.403881 184.272069,173.769949 C184.61824,172.321226 185.1033,170.903553 185.350135,169.431866 C185.859428,166.400929 185.45618,163.175398 185.092084,160.149753 C184.906632,158.604981 184.693242,157.068096 184.469337,155.528715 C184.252141,154.034263 184.686933,152.963546 185.050828,151.543478 C185.446066,150.004097 185.672174,148.428972 185.908495,146.859738 C186.123588,145.428787 186.46345,144.009717 186.607847,142.56968 C186.925679,139.40735 186.909057,136.236932 187.324122,133.077197 C188.034388,127.670594 189.482058,122.422242 189.994756,116.979495 C190.221364,114.574175 190.627817,112.207394 190.913305,109.812857 C191.00483,109.046262 191.865301,108.157159 192.264344,109.28319 C192.53361,110.041198 192.398526,110.866402 192.482941,111.649471 C192.575067,112.504827 192.87157,113.322542 192.965898,114.177498 C193.044906,114.896468 193.0404,115.620431 193.057823,116.342496 C193.095274,117.882476 193.252689,119.428347 193.457267,120.954149 C193.884348,124.133752 194.700358,127.243465 195.262423,130.399206 C195.84061,133.644805 195.95106,136.928046 196.282712,140.201502 C196.586725,143.205181 197.033533,146.194783 197.477537,149.180291 C197.704346,150.704297 198.268414,152.074543 198.585946,153.560907 C198.894766,155.006935 198.338709,156.612711 198.19241,158.055744 C197.871874,161.215977 197.262745,164.419643 197.410847,167.604538 C197.554742,170.688991 198.754475,173.697063 199.300017,176.729199 C199.83875,179.724192 200.266232,182.737656 200.80847,185.731751 C201.088651,187.279519 201.556788,188.820996 201.647512,190.396421 C201.722914,191.716346 201.334686,192.92964 201.018055,194.191557 C200.678793,195.545728 200.850727,196.832107 201.010345,198.197461 C201.089753,198.880088 201.140722,199.567708 201.091155,200.254828 C201.040986,200.943446 200.764911,201.544601 200.623118,202.211553 C200.397811,203.273085 200.523082,204.863985 201.178473,205.771758 C201.367831,206.034146 202.049559,206.301925 202.353873,206.408757 C203.002055,206.6358 203.748571,206.713179 204.426593,206.590671 C205.251215,206.442005 205.667181,206.813721 206.436228,206.940022 C207.086713,207.046755 207.730188,207.01151 208.362849,206.830494 C208.88546,206.681529 209.438213,206.403865 209.990464,206.395179 C210.635041,206.384795 211.320774,206.733647 211.982775,206.778876 C212.794079,206.834588 213.342725,206.600256 214.09565,206.395179 C214.626973,206.250306 214.869203,206.52178 215.267444,206.019369 C215.913323,205.205049 215.389911,204.009228 214.622968,203.471174 C213.679083,202.809913 212.313725,202.431308 211.47939,201.600813 C210.588177,200.713308 209.764957,199.535159 209.085332,198.399044 C208.706517,197.766139 208.96567,196.609756 208.928319,195.859535 C208.891469,195.126887 208.823076,194.396534 208.762793,193.666082 C208.64233,192.203581 208.621601,190.768536 208.779917,189.308031 C209.114873,186.212895 209.235036,183.11087 209.704375,180.029911 C210.183827,176.884355 210.797762,173.757169 211.101576,170.58755 C211.401684,167.461762 211.25889,164.347357 210.897098,161.23345 C210.554331,158.282088 210.021706,155.342607 209.942699,152.367283 C209.861188,149.30869 209.876709,146.150653 210.182025,143.10414 C210.256626,142.359311 210.374186,141.641938 210.622424,140.933252 C210.798564,140.43134 210.774631,139.675229 211.070133,139.248 C211.728229,138.295796 211.850094,136.711486 212.142192,135.592145 C212.887105,132.737132 212.920651,129.743836 213.129535,126.818433 C213.58155,120.493672 213.542798,114.108606 212.439897,107.850042 C212.180945,106.38095 211.882539,104.919347 211.56,103.463036 C211.309459,102.331614 210.926538,101.308023 210.660275,100.167016 C210.324819,98.7301736 209.884219,97.3144983 209.578003,95.8721649 C209.275191,94.4450077 209.288809,92.9801098 209.099952,91.5375767 C208.899279,89.9957996 208.541392,88.4803811 208.1794,86.969755 C208.018381,86.2983102 207.78286,85.6356516 207.816406,84.9355518 C207.84905,84.243739 208.067347,83.5716951 208.058735,82.8765874 C208.038408,81.2471481 207.557453,79.6773151 207.26135,78.0869144 C206.998793,76.6807242 206.990181,75.286615 207.153904,73.8679445 C207.318228,72.4441819 207.630953,71.0476765 207.882696,69.6383912 C208.111908,68.3541094 208.335112,67.2805965 209.004322,66.1470778 C209.22322,65.7766599 209.231631,65.4392901 209.386943,65.0591874 C209.465149,64.8668896 209.670529,64.7698421 209.748935,64.5776441 C209.99497,63.973194 210.138566,63.3096368 210.344946,62.6894115 C210.802469,61.3162694 211.204616,59.9251555 211.680964,58.5582037 C211.778297,58.8820947 211.888346,59.2021916 212.007308,59.5189938 C213.086076,62.4006652 214.378234,65.086145 215.130658,68.0896251 C215.871366,71.046079 215.82981,74.1190499 216.35893,77.114842 C217.389432,82.9482748 220.163507,88.3063546 222.713176,93.602931 C223.371572,94.9696832 224.048293,96.3459204 224.479479,97.8048278 C224.902755,99.2369772 224.977056,100.094929 224.045489,101.301633 C223.217062,102.374047 223.257917,103.612601 223.151372,104.907865 C223.03942,106.26663 222.878401,107.267657 222.26026,108.482148 C221.778905,109.427762 221.388173,110.747688 221.743356,111.799835 C222.033751,112.660183 223.07587,112.860168 223.742376,112.276286 C224.455647,111.652267 224.649811,110.591833 224.965541,109.743167 C225.19275,109.131528 225.450601,108.528376 225.553941,107.880694 C225.616226,107.490207 225.659685,106.882362 226.169679,106.834038 C226.203125,107.614412 226.484007,108.314712 226.791926,109.021301 C226.932417,109.344593 227.067301,109.67128 227.156422,110.013043 C227.263368,110.426193 227.144906,110.662023 227.135694,111.047517 C227.128484,111.349442 227.305224,111.441298 227.198079,111.774574 C227.079718,112.143295 226.880046,112.479566 226.773501,112.853179 C226.631408,113.351496 226.576333,113.872677 226.429433,114.374988 C226.215942,115.104841 225.793367,116.943751 227.17735,116.846704 C227.591013,116.817749 228.223073,114.541626 228.343337,114.659041 C228.322409,115.880422 228.043529,117.068156 227.860079,118.270666 C227.739916,119.059227 227.446817,120.162892 227.873398,120.904527 C228.435663,121.880493 229.230144,120.859997 229.452346,120.256146 C229.903961,119.030272 230.553645,117.979723 230.897613,116.707722 C231.252796,115.394885 231.899977,114.341441 231.942034,112.947232 C231.985193,111.51019 231.881852,110.101903 231.966868,108.666658 C232.007122,107.983033 231.644629,107.359912 231.482709,106.713328 C231.290547,105.947532 231.127826,105.174646 230.981727,104.399065" id="Fill-2-Copy" fill="#8DBC3A"></path>
                <path d="M80.4284656,106.260324 C79.7598075,103.305266 79.0317375,100.404924 79.0728382,97.3619005 C79.0928413,95.8820748 78.6498889,94.4110357 78.5371355,92.9341056 C78.4248798,91.4679589 78.3436735,89.9990166 78.2673436,88.5306733 C78.0978653,85.2631951 77.8952477,82.0071993 77.5481306,78.7534002 C77.2178321,75.6599545 77.1796173,72.4849343 76.2774912,69.4889389 C75.8663844,68.1232378 75.2557451,66.815947 74.8720056,65.4459526 C74.4799066,64.045505 74.4580128,62.5638821 74.2626599,61.1291871 C73.8412033,58.0324465 72.9109138,55.132204 72.1139776,52.1283207 C71.7255608,50.6645703 72.0104794,49.2165958 72.0772557,47.7347732 C72.1432358,46.2795098 71.809056,44.8418194 71.4781603,43.4344824 C70.8256241,40.6611448 70.0408291,37.7529145 68.0826233,35.6037176 C66.1810429,33.5170247 63.281302,32.1659012 60.667674,31.2300396 C59.1947155,30.7026501 57.6654301,30.4247772 56.1676917,29.9875492 C54.838337,29.599246 53.5842175,28.9997673 52.2578482,28.6065716 C51.5445068,28.3952963 50.7900646,28.1923083 50.1855954,27.736409 C49.8786834,27.5051644 49.5972479,26.7819759 49.2667503,26.6987039 C48.9469011,26.6183274 48.6337195,25.5377881 48.5210657,25.2475342 C48.2881947,24.6461585 48.1750433,24.0256122 48.1972357,23.3799046 C48.2256977,22.5549724 48.4513039,21.7591955 48.6479505,20.9632188 C48.7653811,20.4886482 48.7157219,19.6935702 48.9415271,19.2744144 C49.0475132,19.077517 49.2919282,19.2192991 49.449962,19.1891454 C49.63188,19.1541991 49.7115935,18.9439223 49.7891176,18.804237 C50.1253873,18.1985679 50.4939006,17.6286438 50.763593,16.986331 C51.2225677,15.8939099 51.8845581,13.7567945 51.0625436,12.6806484 C50.9180441,12.4911397 50.1777335,12.2628905 49.9918348,12.4933363 C49.9126189,12.5914855 49.7385628,13.2480764 49.540722,12.9260712 C49.8899289,9.853194 50.1108577,6.58851155 48.207088,3.94717107 C46.4408514,1.49713656 43.4877691,-0.0410992971 40.4684082,0.00083625148 C37.4937307,0.0419730277 34.6249398,1.62284336 32.9472738,4.07946774 C32.0656482,5.3705834 31.5424848,6.86688371 31.4389866,8.4289829 C31.333697,10.0161436 31.6936518,11.5816375 31.6614082,13.1668013 C31.1010251,12.097944 29.9615498,12.3239966 29.8834285,13.548914 C29.8002319,14.8540082 30.087937,16.4863993 30.764855,17.597292 C31.0273822,18.0282297 31.3020505,19.0718257 31.8630306,19.1375248 C32.5599517,19.2186002 32.3835071,19.8024029 32.47367,20.3591472 C32.7122134,21.8313845 33.2759801,23.2626847 32.8924396,24.7640772 C32.5985644,25.9141097 31.9012453,27.2610396 30.8207839,27.8387517 C29.5549213,28.5155116 28.0310098,28.9130007 26.6867274,29.4233164 C25.336474,29.9361282 23.9727857,30.2844928 22.5674991,30.6050002 C20.3138259,31.1187107 18.1952974,31.9599178 16.2117146,33.1440978 C14.5399201,34.1421639 13.2778392,35.165591 12.2331045,36.798681 C11.0971122,38.5740524 10.4086502,40.466444 9.85065558,42.5067083 C9.43994686,44.0080009 9.19125263,45.5614135 9.11621644,47.1167231 C9.0517291,48.4513718 9.3889939,49.824162 9.17005541,51.1422362 C8.65594801,54.2386772 7.47716324,57.2241888 6.92613485,60.3269201 C6.66798646,61.778589 6.67644544,63.2499277 6.31738631,64.6864199 C5.96668664,66.0889643 5.45884885,67.4458789 5.01380659,68.8197673 C4.03435537,71.844219 3.67310685,74.9653221 3.43317016,78.1237678 C3.18547111,81.3815609 2.99389992,84.6433478 2.79745238,87.9041362 C2.61234983,90.9794098 2.08341433,94.0291227 1.91144809,97.0963086 C1.75470803,99.8983022 1.63707835,102.694605 0.807898549,105.407735 C0.607868377,106.06173 0.599210354,106.700248 0.36504568,107.342162 C0.111276059,108.038491 0.0533568744,108.804714 0.0296717098,109.539485 C-0.0143150246,110.896499 -0.0208831795,112.290257 0.0906759364,113.644076 C0.198254352,114.948771 0.971306282,116.181177 1.34111331,117.44154 C1.67499451,118.580589 2.33409891,119.718141 2.90513032,120.75305 C3.23453324,121.350732 3.87482882,121.433005 4.33887892,120.923189 C4.74520886,120.476875 4.73854119,119.84894 4.67634276,119.286504 C4.51781138,117.850911 3.93145428,116.475325 3.9424012,115.018963 C4.42386686,115.426237 4.38475648,117.507938 5.48890313,116.839465 C6.64012156,116.142936 5.96181029,114.429469 5.65450025,113.469744 C5.28280239,112.309028 4.75426496,110.873235 5.33047127,109.691251 C5.53915947,109.263409 5.8345274,108.876603 5.9738519,108.415812 C6.10013961,107.997554 6.14054371,107.521985 6.46218427,107.19349 C6.97430132,108.682701 7.15034777,112.151171 9.12348122,112.579213 C10.2697238,112.827831 10.7761683,111.695371 10.7693016,110.737344 C10.7609421,109.579523 10.2329023,108.56009 9.81811336,107.509904 C9.31176832,106.227774 9.40690705,105.115384 9.4868196,103.772348 C9.55837269,102.570495 9.12387929,101.73428 8.62241061,100.687789 C7.626539,98.6101819 9.13054696,96.2688803 10.0921845,94.4417884 C10.7049138,93.2775777 11.263207,92.0925989 11.823789,90.9026278 C12.0821365,90.3543704 12.3501371,89.8110055 12.5994284,89.2585546 C12.7693048,88.8819334 12.8837499,88.2364255 13.1827005,87.9416785 C13.8482735,87.2850877 14.181259,86.2769371 14.5671879,85.4035794 C15.0747272,84.2551444 15.5753997,83.1023162 16.003524,81.9212315 C16.9164975,79.4023028 17.3552702,76.7594647 17.6781049,74.1077401 C17.9749656,71.66789 18.3746279,69.5344689 19.5417691,67.3433365 C19.5928216,69.2338309 19.0129331,71.0613222 18.7302039,72.9131761 C18.4491665,74.7540468 18.1412594,76.5685581 17.7963317,78.398246 C17.485041,80.0482101 17.1787261,81.8265769 17.118518,83.5036993 C17.0901555,84.2894916 17.2360482,85.0183714 17.3510904,85.7893864 C17.468322,86.5740804 17.1437955,87.2258787 16.9214734,87.9552577 C15.1761355,93.6839531 13.5939068,99.6187319 13.319537,105.630892 C13.0234725,112.114826 13.0801974,118.472955 13.970481,124.918748 C14.4031831,128.051034 14.829516,131.207383 15.3938798,134.318901 C15.935653,137.304113 17.2586387,140.061275 17.9135633,143.021026 C19.3470134,149.49907 18.392143,155.833834 17.9281924,162.346225 C17.4580717,168.944883 18.6112805,175.319386 19.566549,181.8168 C20.0347788,185.001705 20.6570617,188.108031 21.4206595,191.233827 C21.790566,192.7482 21.9995528,194.201466 22.1296221,195.750785 C22.183063,196.387606 22.364583,196.98349 22.5538652,197.590158 C22.7413562,198.190535 22.1935124,198.609491 21.8484852,199.082365 C20.9939285,200.254563 20.0138801,201.262714 18.7655326,202.014059 C17.7068655,202.651279 16.4105505,203.377463 16.276799,204.751152 C16.2135059,205.401353 16.3759184,206.453236 17.2395313,206.337314 C17.7445826,206.269519 18.1273269,206.610095 18.6583523,206.676793 C19.9944742,206.844135 21.2922819,206.226585 22.6011361,206.481193 C23.4223545,206.640848 24.1667453,207.027054 25.0226953,206.998498 C25.6987177,206.975833 26.2960217,206.726816 26.9417908,206.565663 C28.1484405,206.263727 29.564674,206.901148 30.6424485,206.094687 C32.6018485,204.62874 31.3391705,201.01799 31.6622043,199.021159 C31.9034347,197.530749 32.0539052,196.102345 32.0239504,194.587772 C31.9972797,193.225167 31.9302049,191.885126 32.2306483,190.545385 C32.9256785,187.446748 33.6371291,184.352204 34.3509681,181.25766 C35.0565471,178.198162 35.6848011,175.13507 36.4416317,172.086156 C37.228218,168.917625 37.5412005,165.729425 37.2642433,162.470833 C37.1208386,160.782628 36.8679647,159.106005 36.6216588,157.430081 C36.4196383,156.055993 36.5581667,154.865522 36.7091347,153.499522 C36.8827928,151.928536 37.4257602,150.54027 37.7610347,149.008724 C38.0756095,147.571233 38.2240896,146.104387 38.382422,144.643433 C38.7356096,141.384541 39.1012368,138.126249 39.4246687,134.864063 C39.74203,131.661285 39.8238334,128.400197 40.5411555,125.252335 C41.0437189,129.073562 41.3319216,132.918553 41.8367738,136.740679 C42.3253052,140.437796 42.5694217,144.171857 43.1341835,147.857293 C43.3720303,149.410406 43.9829682,150.857981 44.2264875,152.406901 C44.4505014,153.833209 44.5539996,155.301951 44.4866263,156.744734 C44.3385442,159.925545 43.5678807,163.037363 43.6811316,166.238443 C43.7914966,169.363041 44.7227813,172.390588 45.4550311,175.408649 C46.2215148,178.568593 46.8505649,181.76478 47.482302,184.953779 C48.073834,187.940489 48.9652123,190.912621 48.9962617,193.973417 C49.0122841,195.529026 49.1348896,197.05558 49.3427817,198.596911 C49.5328601,200.006145 49.4322479,201.247637 49.3016809,202.654574 C49.1825585,203.938801 49.3768166,205.600746 50.6920399,206.224687 C51.8393772,206.76945 53.2092355,206.296178 54.4159847,206.688774 C55.9653726,207.1926 57.0053305,206.672998 58.5340188,206.450341 C59.8166003,206.263328 61.0789798,206.865003 62.3937055,206.71783 C62.7842121,206.673997 63.1145107,206.467115 63.4939709,206.413597 C63.736296,206.37945 64.0302707,206.449542 64.2586634,206.328128 C64.6886785,206.099779 64.7756568,205.182489 64.7380392,204.760737 C64.68838,204.204392 64.412617,203.691481 63.9935488,203.327141 C63.6436453,203.022709 63.1998967,202.571003 62.8057079,202.354136 C62.0433044,201.934481 60.7484822,201.337998 60.4604785,200.636576 C60.0586269,199.65808 58.1123632,198.818171 58.5788017,197.54992 C58.8312776,196.862976 58.7439012,196.068397 58.7874899,195.349602 C58.8293867,194.66106 58.9450261,193.983002 59.0777824,193.307141 C59.3565309,191.886324 59.7476347,190.498957 60.133265,189.105299 C60.9717994,186.073758 61.1491396,182.87128 61.6518025,179.771144 C62.1736723,176.55319 62.7635125,173.340428 63.0924178,170.095016 C63.423413,166.830233 63.3446947,163.609583 62.9812568,160.352289 C62.2894111,154.152917 61.8139165,147.703629 63.4808346,141.594419 C63.8997038,140.058879 64.4929276,138.579353 64.8988595,137.038621 C65.2911574,135.550707 65.5911032,134.03973 65.862786,132.525257 C66.4386937,129.313194 67.0101232,126.092644 67.3957535,122.850926 C68.1681088,116.358504 68.3502258,109.853502 67.5956842,103.349798 C67.2259766,100.163794 66.6584284,97.0007555 65.9086635,93.8829473 C65.5489078,92.3859481 65.0620682,90.9218982 64.6500657,89.4393767 C64.2871254,88.1342825 63.7251501,86.9733668 63.8496465,85.5833032 C63.9950415,83.9587 64.0672912,82.5632447 63.7584884,80.9448321 C63.4838201,79.5071417 63.2153219,78.0688522 63.019372,76.6178823 C62.8080963,75.0540857 62.6401108,73.4840986 62.3179727,71.9375755 C62.0331536,70.5688791 61.4388351,69.1163116 61.7803791,67.7046811 C62.1646162,68.9406815 62.8079968,70.0716433 63.0136,71.363358 C63.2009914,72.53975 63.1630753,73.7419024 63.289761,74.9259826 C63.548606,77.3445654 64.1991519,79.7519654 65.0538082,82.0238737 C65.9598155,84.4323721 67.1590014,86.7062773 68.3207687,88.9966571 C69.3882929,91.1014223 70.3042519,93.2696898 71.3412243,95.3952231 C71.8749366,96.4897409 72.349237,97.6194047 72.6284831,98.8083773 C72.7603438,99.3693152 72.8724005,99.8226185 72.5977322,100.359893 C72.3349065,100.873903 72.0255066,101.354065 71.8467731,101.908113 C71.4810463,103.040772 71.6749064,104.203785 71.6944119,105.366798 C71.7134197,106.51034 71.3614263,107.40836 70.876378,108.419306 C70.4374063,109.3345 70.0341614,110.427719 70.264644,111.455939 C70.455618,112.309028 71.2952472,112.86048 72.1393546,112.497139 C74.0905942,111.657829 73.4256183,108.665827 74.6198282,107.313506 C74.9889386,107.834705 74.9181817,108.53403 75.2996323,109.04814 C75.6386884,109.505337 75.8948464,109.894439 75.952268,110.483134 C76.0756697,111.742698 75.505733,113.019137 75.1175153,114.188939 C74.8787728,114.908233 74.4610978,116.823789 75.7099429,116.931124 C76.295902,116.981447 76.5583296,116.444472 76.6645148,115.960815 C76.6668037,115.949633 76.8410588,115.162842 76.9513242,115.240822 C77.174741,115.39818 76.9248525,116.297598 76.8898224,116.503382 C76.7432331,117.358068 75.3914869,121.537644 77.4096023,121.287329 C78.0426331,121.20895 78.4162218,120.279079 78.5146446,119.734615 C78.5827146,119.359392 79.1380222,118.937041 79.2946627,118.530167 C79.7624945,117.315933 80.2153986,116.072544 80.6311827,114.840038 C81.0790115,113.512678 81.0026816,111.973643 80.9819819,110.59027 C80.9600881,109.116135 80.7533902,107.695818 80.4284656,106.260324" id="Fill-8-Copy" fill="#E5322C"></path>
                <path d="M382.428466,106.260324 C381.759808,103.305266 381.031738,100.404924 381.072838,97.3619005 C381.092841,95.8820748 380.649889,94.4110357 380.537136,92.9341056 C380.42488,91.4679589 380.343674,89.9990166 380.267344,88.5306733 C380.097865,85.2631951 379.895248,82.0071993 379.548131,78.7534002 C379.217832,75.6599545 379.179617,72.4849343 378.277491,69.4889389 C377.866384,68.1232378 377.255745,66.815947 376.872006,65.4459526 C376.479907,64.045505 376.458013,62.5638821 376.26266,61.1291871 C375.841203,58.0324465 374.910914,55.132204 374.113978,52.1283207 C373.725561,50.6645703 374.010479,49.2165958 374.077256,47.7347732 C374.143236,46.2795098 373.809056,44.8418194 373.47816,43.4344824 C372.825624,40.6611448 372.040829,37.7529145 370.082623,35.6037176 C368.181043,33.5170247 365.281302,32.1659012 362.667674,31.2300396 C361.194715,30.7026501 359.66543,30.4247772 358.167692,29.9875492 C356.838337,29.599246 355.584217,28.9997673 354.257848,28.6065716 C353.544507,28.3952963 352.790065,28.1923083 352.185595,27.736409 C351.878683,27.5051644 351.597248,26.7819759 351.26675,26.6987039 C350.946901,26.6183274 350.633719,25.5377881 350.521066,25.2475342 C350.288195,24.6461585 350.175043,24.0256122 350.197236,23.3799046 C350.225698,22.5549724 350.451304,21.7591955 350.64795,20.9632188 C350.765381,20.4886482 350.715722,19.6935702 350.941527,19.2744144 C351.047513,19.077517 351.291928,19.2192991 351.449962,19.1891454 C351.63188,19.1541991 351.711594,18.9439223 351.789118,18.804237 C352.125387,18.1985679 352.493901,17.6286438 352.763593,16.986331 C353.222568,15.8939099 353.884558,13.7567945 353.062544,12.6806484 C352.918044,12.4911397 352.177733,12.2628905 351.991835,12.4933363 C351.912619,12.5914855 351.738563,13.2480764 351.540722,12.9260712 C351.889929,9.853194 352.110858,6.58851155 350.207088,3.94717107 C348.440851,1.49713656 345.487769,-0.0410992971 342.468408,0.00083625148 C339.493731,0.0419730277 336.62494,1.62284336 334.947274,4.07946774 C334.065648,5.3705834 333.542485,6.86688371 333.438987,8.4289829 C333.333697,10.0161436 333.693652,11.5816375 333.661408,13.1668013 C333.101025,12.097944 331.96155,12.3239966 331.883429,13.548914 C331.800232,14.8540082 332.087937,16.4863993 332.764855,17.597292 C333.027382,18.0282297 333.30205,19.0718257 333.863031,19.1375248 C334.559952,19.2186002 334.383507,19.8024029 334.47367,20.3591472 C334.712213,21.8313845 335.27598,23.2626847 334.89244,24.7640772 C334.598564,25.9141097 333.901245,27.2610396 332.820784,27.8387517 C331.554921,28.5155116 330.03101,28.9130007 328.686727,29.4233164 C327.336474,29.9361282 325.972786,30.2844928 324.567499,30.6050002 C322.313826,31.1187107 320.195297,31.9599178 318.211715,33.1440978 C316.53992,34.1421639 315.277839,35.165591 314.233104,36.798681 C313.097112,38.5740524 312.40865,40.466444 311.850656,42.5067083 C311.439947,44.0080009 311.191253,45.5614135 311.116216,47.1167231 C311.051729,48.4513718 311.388994,49.824162 311.170055,51.1422362 C310.655948,54.2386772 309.477163,57.2241888 308.926135,60.3269201 C308.667986,61.778589 308.676445,63.2499277 308.317386,64.6864199 C307.966687,66.0889643 307.458849,67.4458789 307.013807,68.8197673 C306.034355,71.844219 305.673107,74.9653221 305.43317,78.1237678 C305.185471,81.3815609 304.9939,84.6433478 304.797452,87.9041362 C304.61235,90.9794098 304.083414,94.0291227 303.911448,97.0963086 C303.754708,99.8983022 303.637078,102.694605 302.807899,105.407735 C302.607868,106.06173 302.59921,106.700248 302.365046,107.342162 C302.111276,108.038491 302.053357,108.804714 302.029672,109.539485 C301.985685,110.896499 301.979117,112.290257 302.090676,113.644076 C302.198254,114.948771 302.971306,116.181177 303.341113,117.44154 C303.674995,118.580589 304.334099,119.718141 304.90513,120.75305 C305.234533,121.350732 305.874829,121.433005 306.338879,120.923189 C306.745209,120.476875 306.738541,119.84894 306.676343,119.286504 C306.517811,117.850911 305.931454,116.475325 305.942401,115.018963 C306.423867,115.426237 306.384756,117.507938 307.488903,116.839465 C308.640122,116.142936 307.96181,114.429469 307.6545,113.469744 C307.282802,112.309028 306.754265,110.873235 307.330471,109.691251 C307.539159,109.263409 307.834527,108.876603 307.973852,108.415812 C308.10014,107.997554 308.140544,107.521985 308.462184,107.19349 C308.974301,108.682701 309.150348,112.151171 311.123481,112.579213 C312.269724,112.827831 312.776168,111.695371 312.769302,110.737344 C312.760942,109.579523 312.232902,108.56009 311.818113,107.509904 C311.311768,106.227774 311.406907,105.115384 311.48682,103.772348 C311.558373,102.570495 311.123879,101.73428 310.622411,100.687789 C309.626539,98.6101819 311.130547,96.2688803 312.092185,94.4417884 C312.704914,93.2775777 313.263207,92.0925989 313.823789,90.9026278 C314.082136,90.3543704 314.350137,89.8110055 314.599428,89.2585546 C314.769305,88.8819334 314.88375,88.2364255 315.1827,87.9416785 C315.848273,87.2850877 316.181259,86.2769371 316.567188,85.4035794 C317.074727,84.2551444 317.5754,83.1023162 318.003524,81.9212315 C318.916497,79.4023028 319.35527,76.7594647 319.678105,74.1077401 C319.974966,71.66789 320.374628,69.5344689 321.541769,67.3433365 C321.592822,69.2338309 321.012933,71.0613222 320.730204,72.9131761 C320.449166,74.7540468 320.141259,76.5685581 319.796332,78.398246 C319.485041,80.0482101 319.178726,81.8265769 319.118518,83.5036993 C319.090156,84.2894916 319.236048,85.0183714 319.35109,85.7893864 C319.468322,86.5740804 319.143795,87.2258787 318.921473,87.9552577 C317.176135,93.6839531 315.593907,99.6187319 315.319537,105.630892 C315.023472,112.114826 315.080197,118.472955 315.970481,124.918748 C316.403183,128.051034 316.829516,131.207383 317.39388,134.318901 C317.935653,137.304113 319.258639,140.061275 319.913563,143.021026 C321.347013,149.49907 320.392143,155.833834 319.928192,162.346225 C319.458072,168.944883 320.611281,175.319386 321.566549,181.8168 C322.034779,185.001705 322.657062,188.108031 323.420659,191.233827 C323.790566,192.7482 323.999553,194.201466 324.129622,195.750785 C324.183063,196.387606 324.364583,196.98349 324.553865,197.590158 C324.741356,198.190535 324.193512,198.609491 323.848485,199.082365 C322.993928,200.254563 322.01388,201.262714 320.765533,202.014059 C319.706865,202.651279 318.410551,203.377463 318.276799,204.751152 C318.213506,205.401353 318.375918,206.453236 319.239531,206.337314 C319.744583,206.269519 320.127327,206.610095 320.658352,206.676793 C321.994474,206.844135 323.292282,206.226585 324.601136,206.481193 C325.422354,206.640848 326.166745,207.027054 327.022695,206.998498 C327.698718,206.975833 328.296022,206.726816 328.941791,206.565663 C330.14844,206.263727 331.564674,206.901148 332.642448,206.094687 C334.601849,204.62874 333.339171,201.01799 333.662204,199.021159 C333.903435,197.530749 334.053905,196.102345 334.02395,194.587772 C333.99728,193.225167 333.930205,191.885126 334.230648,190.545385 C334.925678,187.446748 335.637129,184.352204 336.350968,181.25766 C337.056547,178.198162 337.684801,175.13507 338.441632,172.086156 C339.228218,168.917625 339.541201,165.729425 339.264243,162.470833 C339.120839,160.782628 338.867965,159.106005 338.621659,157.430081 C338.419638,156.055993 338.558167,154.865522 338.709135,153.499522 C338.882793,151.928536 339.42576,150.54027 339.761035,149.008724 C340.07561,147.571233 340.22409,146.104387 340.382422,144.643433 C340.73561,141.384541 341.101237,138.126249 341.424669,134.864063 C341.74203,131.661285 341.823833,128.400197 342.541156,125.252335 C343.043719,129.073562 343.331922,132.918553 343.836774,136.740679 C344.325305,140.437796 344.569422,144.171857 345.134183,147.857293 C345.37203,149.410406 345.982968,150.857981 346.226488,152.406901 C346.450501,153.833209 346.554,155.301951 346.486626,156.744734 C346.338544,159.925545 345.567881,163.037363 345.681132,166.238443 C345.791497,169.363041 346.722781,172.390588 347.455031,175.408649 C348.221515,178.568593 348.850565,181.76478 349.482302,184.953779 C350.073834,187.940489 350.965212,190.912621 350.996262,193.973417 C351.012284,195.529026 351.13489,197.05558 351.342782,198.596911 C351.53286,200.006145 351.432248,201.247637 351.301681,202.654574 C351.182558,203.938801 351.376817,205.600746 352.69204,206.224687 C353.839377,206.76945 355.209236,206.296178 356.415985,206.688774 C357.965373,207.1926 359.005331,206.672998 360.534019,206.450341 C361.8166,206.263328 363.07898,206.865003 364.393705,206.71783 C364.784212,206.673997 365.114511,206.467115 365.493971,206.413597 C365.736296,206.37945 366.030271,206.449542 366.258663,206.328128 C366.688679,206.099779 366.775657,205.182489 366.738039,204.760737 C366.68838,204.204392 366.412617,203.691481 365.993549,203.327141 C365.643645,203.022709 365.199897,202.571003 364.805708,202.354136 C364.043304,201.934481 362.748482,201.337998 362.460479,200.636576 C362.058627,199.65808 360.112363,198.818171 360.578802,197.54992 C360.831278,196.862976 360.743901,196.068397 360.78749,195.349602 C360.829387,194.66106 360.945026,193.983002 361.077782,193.307141 C361.356531,191.886324 361.747635,190.498957 362.133265,189.105299 C362.971799,186.073758 363.14914,182.87128 363.651803,179.771144 C364.173672,176.55319 364.763512,173.340428 365.092418,170.095016 C365.423413,166.830233 365.344695,163.609583 364.981257,160.352289 C364.289411,154.152917 363.813917,147.703629 365.480835,141.594419 C365.899704,140.058879 366.492928,138.579353 366.898859,137.038621 C367.291157,135.550707 367.591103,134.03973 367.862786,132.525257 C368.438694,129.313194 369.010123,126.092644 369.395754,122.850926 C370.168109,116.358504 370.350226,109.853502 369.595684,103.349798 C369.225977,100.163794 368.658428,97.0007555 367.908664,93.8829473 C367.548908,92.3859481 367.062068,90.9218982 366.650066,89.4393767 C366.287125,88.1342825 365.72515,86.9733668 365.849646,85.5833032 C365.995042,83.9587 366.067291,82.5632447 365.758488,80.9448321 C365.48382,79.5071417 365.215322,78.0688522 365.019372,76.6178823 C364.808096,75.0540857 364.640111,73.4840986 364.317973,71.9375755 C364.033154,70.5688791 363.438835,69.1163116 363.780379,67.7046811 C364.164616,68.9406815 364.807997,70.0716433 365.0136,71.363358 C365.200991,72.53975 365.163075,73.7419024 365.289761,74.9259826 C365.548606,77.3445654 366.199152,79.7519654 367.053808,82.0238737 C367.959816,84.4323721 369.159001,86.7062773 370.320769,88.9966571 C371.388293,91.1014223 372.304252,93.2696898 373.341224,95.3952231 C373.874937,96.4897409 374.349237,97.6194047 374.628483,98.8083773 C374.760344,99.3693152 374.8724,99.8226185 374.597732,100.359893 C374.334906,100.873903 374.025507,101.354065 373.846773,101.908113 C373.481046,103.040772 373.674906,104.203785 373.694412,105.366798 C373.71342,106.51034 373.361426,107.40836 372.876378,108.419306 C372.437406,109.3345 372.034161,110.427719 372.264644,111.455939 C372.455618,112.309028 373.295247,112.86048 374.139355,112.497139 C376.090594,111.657829 375.425618,108.665827 376.619828,107.313506 C376.988939,107.834705 376.918182,108.53403 377.299632,109.04814 C377.638688,109.505337 377.894846,109.894439 377.952268,110.483134 C378.07567,111.742698 377.505733,113.019137 377.117515,114.188939 C376.878773,114.908233 376.461098,116.823789 377.709943,116.931124 C378.295902,116.981447 378.55833,116.444472 378.664515,115.960815 C378.666804,115.949633 378.841059,115.162842 378.951324,115.240822 C379.174741,115.39818 378.924853,116.297598 378.889822,116.503382 C378.743233,117.358068 377.391487,121.537644 379.409602,121.287329 C380.042633,121.20895 380.416222,120.279079 380.514645,119.734615 C380.582715,119.359392 381.138022,118.937041 381.294663,118.530167 C381.762495,117.315933 382.215399,116.072544 382.631183,114.840038 C383.079011,113.512678 383.002682,111.973643 382.981982,110.59027 C382.960088,109.116135 382.75339,107.695818 382.428466,106.260324" id="Fill-8-Copy-2" fill="#E5322C"></path>
                <path d="M124.32343,92.0288761 L110.768523,105.353458 C109.906267,106.2015 108.508267,106.2015 107.64643,105.353458 C106.784523,104.50617 106.784523,103.131951 107.64643,102.284732 L119.64043,90.4945133 L107.646779,78.7047058 C106.784872,77.8570752 106.784872,76.4829934 107.646779,75.6357058 C108.508686,74.7880752 109.906616,74.7880752 110.768872,75.6357058 L124.323779,88.9604934 C124.754733,89.3843429 124.969965,89.9392566 124.969965,90.4944447 C124.969965,91.0499071 124.754314,91.6052323 124.32343,92.0288761 L124.32343,92.0288761 Z" id="Shape" fill="#D4D4D4"></path>
                <path d="M275.293395,92.0288761 L261.738488,105.353458 C260.876233,106.2015 259.478233,106.2015 258.616395,105.353458 C257.754488,104.50617 257.754488,103.131951 258.616395,102.284732 L270.610395,90.4945133 L258.616744,78.7047058 C257.754837,77.8570752 257.754837,76.4829934 258.616744,75.6357058 C259.478651,74.7880752 260.876581,74.7880752 261.738837,75.6357058 L275.293744,88.9604934 C275.724698,89.3843429 275.93993,89.9392566 275.93993,90.4944447 C275.93993,91.0499071 275.724279,91.6052323 275.293395,92.0288761 L275.293395,92.0288761 Z" id="Shape" fill="#D4D4D4"></path>
            </g>
        </g>
    </g>
</svg>