<?xml version="1.0" encoding="UTF-8" standalone="no"?>
<svg width="107px" height="100px" viewBox="0 0 107 100" version="1.1" xmlns="http://www.w3.org/2000/svg" xmlns:xlink="http://www.w3.org/1999/xlink">
    <!-- Generator: sketchtool 3.6.1 (26313) - http://www.bohemiancoding.com/sketch -->
    <title>Group 28</title>
    <desc>Created with sketchtool.</desc>
    <defs>
        <path id="path-1" d="M0,0 L70,0 L70,79 L0,79 L0,0 Z"></path>
    </defs>
    <g id="Page-1" stroke="none" stroke-width="1" fill="none" fill-rule="evenodd">
        <g id="My-Genetics" transform="translate(-1039.000000, -1560.000000)">
            <g id="Group-28" transform="translate(1039.000000, 1560.000000)">
                <rect id="Rectangle-105" fill-opacity="0.01" fill="#FFFFFF" x="0" y="0" width="107" height="100"></rect>
                <g id="Page-1" transform="translate(19.000000, 10.000000)">
                    <g id="Group-5" transform="translate(0.000000, 1.000000)">
                        <mask id="mask-2" fill="white">
                            <use xlink:href="#path-1"></use>
                        </mask>
                        <g id="Clip-4"></g>
                        <path d="M19.7451,76.0723 C18.9511,76.0723 18.3051,76.7283 18.3051,77.5363 C18.3051,78.3433 18.9511,79.0003 19.7451,79.0003 L50.2541,79.0003 C51.0481,79.0003 51.6941,78.3433 51.6941,77.5363 C51.6941,76.7283 51.0481,76.0723 50.2541,76.0723 L19.7451,76.0723 Z" id="Fill-3" fill="#2D96DD" mask="url(#mask-2)"></path>
                    </g>
                    <path d="M44.1523,71.6807 C44.9463,71.6807 45.5923,71.0247 45.5923,70.2167 C45.5923,69.4097 44.9463,68.7527 44.1523,68.7527 L25.8473,68.7527 C25.0523,68.7527 24.4063,69.4097 24.4063,70.2167 C24.4063,71.0247 25.0523,71.6807 25.8473,71.6807 L44.1523,71.6807 Z" id="Fill-1" fill="#2D96DD"></path>
                    <g id="Group-8" fill="#2D96DD">
                        <path d="M42.251,61.8594 C44.275,59.1344 46.026,56.4104 47.605,53.5314 L47.872,53.0434 L48.428,53.0124 C60.523,52.3634 69.999,42.2664 70,30.0264 C70,26.9744 69.417,24.0084 68.269,21.2114 C67.118,18.4114 65.453,15.8994 63.319,13.7444 L63.318,13.7444 C63.047,13.4704 62.688,13.3194 62.305,13.3194 L62.304,13.3194 C61.921,13.3194 61.561,13.4704 61.288,13.7444 C60.721,14.3174 60.721,15.2484 61.288,15.8214 C63.15,17.7004 64.605,19.8934 65.608,22.3384 C66.61,24.7754 67.118,27.3614 67.118,30.0264 C67.118,39.4734 60.47,47.7424 51.31,49.6884 L49.395,50.0944 L50.188,48.3054 C55.449,36.4234 57.796,22.2854 57.796,2.4634 C57.796,1.6564 57.149,0.9994 56.355,0.9994 L13.644,0.9994 C12.85,0.9994 12.203,1.6564 12.203,2.4634 C12.203,22.2834 14.55,36.4224 19.812,48.3054 L20.605,50.0944 L18.689,49.6884 C9.53,47.7424 2.881,39.4734 2.881,30.0264 C2.881,27.3614 3.389,24.7754 4.391,22.3384 C5.395,19.8934 6.849,17.7004 8.711,15.8214 C9.278,15.2484 9.278,14.3174 8.711,13.7444 C8.439,13.4694 8.079,13.3184 7.697,13.3184 L7.696,13.3184 C7.313,13.3184 6.952,13.4694 6.68,13.7444 C4.547,15.8974 2.882,18.4094 1.731,21.2104 C0.583,24.0064 0,26.9724 0,30.0264 C0,42.2664 9.475,52.3634 21.571,53.0124 L22.127,53.0434 L22.395,53.5314 C23.977,56.4154 25.728,59.1394 27.748,61.8594 C27.98,62.1714 28.317,62.3734 28.698,62.4274 C29.073,62.4754 29.453,62.3824 29.759,62.1524 C30.399,61.6664 30.529,60.7444 30.048,60.0964 C22.492,49.9264 15.451,36.2054 15.098,4.9384 L15.087,3.9274 L54.913,3.9274 L54.901,4.9384 C54.549,36.2064 47.508,49.9264 39.951,60.0964 C39.47,60.7444 39.6,61.6664 40.241,62.1524 C40.855,62.6174 41.79,62.4814 42.251,61.8594" id="Fill-6"></path>
                    </g>
                </g>
            </g>
        </g>
    </g>
</svg>