<?xml version="1.0" encoding="UTF-8" standalone="no"?>
<svg width="66px" height="66px" viewBox="0 0 66 66" version="1.1" xmlns="http://www.w3.org/2000/svg" xmlns:xlink="http://www.w3.org/1999/xlink">
    <!-- Generator: sketchtool 3.6.1 (26313) - http://www.bohemiancoding.com/sketch -->
    <title>Group 20</title>
    <desc>Created with sketchtool.</desc>
    <defs></defs>
    <g id="Page-1" stroke="none" stroke-width="1" fill="none" fill-rule="evenodd">
        <g id="My-Genetics" transform="translate(-911.000000, -3667.000000)">
            <g id="Group-20" transform="translate(911.000000, 3667.000000)">
                <g id="Group-34" fill="#2D96DD">
                    <circle id="Oval-72" cx="33" cy="33" r="33"></circle>
                </g>
                <g id="stick-man_2" transform="translate(21.000000, 11.000000)" fill="#FFFFFF">
                    <g id="Capa_1">
                        <path d="M12.0332016,0 C9.63035573,0 7.67525692,2.20178862 7.67525692,4.90886179 C7.67525692,7.61593496 9.63035573,9.81772358 12.0332016,9.81772358 C14.4360474,9.81772358 16.3911462,7.61593496 16.3911462,4.90886179 C16.3911462,2.20178862 14.4360474,0 12.0332016,0 L12.0332016,0 Z M12.0332016,8.75707317 C10.250751,8.75707317 8.80031621,7.03105691 8.80031621,4.91154472 C8.80031621,2.79203252 10.250751,1.06601626 12.0332016,1.06601626 C13.8156522,1.06601626 15.266087,2.79203252 15.266087,4.91154472 C15.266087,7.03105691 13.8156522,8.75707317 12.0332016,8.75707317 L12.0332016,8.75707317 Z" id="Shape"></path>
                        <path d="M19.0719368,12.0955285 C17.4156522,11.6573171 14.6513834,11.3738211 12.0294071,11.3738211 C9.40743083,11.3738211 6.64980237,11.6573171 4.99351779,12.0955285 C3.49470356,12.4926016 2.8116996,13.0792683 1.82418972,14.8249593 C0.655494071,16.8881301 -0.0730434783,20.190813 0.128063241,22.5160163 L0.187826087,23.2162602 C0.377549407,25.4761789 0.502766798,26.9723577 1.35652174,27.8103252 C2.09264822,28.5356098 2.95494071,28.7511382 3.77454545,28.9103252 L3.90924901,28.9362602 L3.92442688,29.0650407 C4.39873518,33.011626 4.9887747,37.9186992 5.64901186,41.9278862 L5.64901186,41.9502439 C5.68411067,43.0860163 7.74735178,43.7495935 11.7789723,43.9230894 L11.8131225,43.9230894 L11.8131225,43.9105691 L12.0094862,43.9213008 L12.0398419,43.9213008 C12.0575196,43.9226699 12.0752867,43.9226699 12.0929644,43.9213008 L12.3083004,43.9114634 C16.3228458,43.7397561 18.3794466,43.0761789 18.4116996,41.9439837 L18.4116996,41.921626 C19.0776285,37.9186992 19.667668,33.0089431 20.1419763,29.0650407 L20.1571542,28.9362602 L20.2918577,28.9103252 C21.1114625,28.7511382 21.9737549,28.5356098 22.7098814,27.8112195 C23.5636364,26.9696748 23.6898024,25.4770732 23.8785771,23.2171545 L23.9373913,22.5186992 C24.158419,19.9770732 23.4924901,16.9587805 22.2422134,14.8276423 C21.1987352,13.0470732 20.546087,12.4854472 19.0719368,12.0955285 L19.0719368,12.0955285 Z M22.8161265,22.4292683 L22.7563636,23.1313008 C22.592253,25.091626 22.4717787,26.5082114 21.8959684,27.0769919 C21.4709881,27.4955285 20.9587352,27.6645528 20.5593676,27.7638211 L20.2899605,27.8308943 L20.7775494,23.8485366 C20.8126082,23.5580912 20.5921676,23.295518 20.2842688,23.2609756 C19.9763418,23.2268369 19.6971707,23.434028 19.6600791,23.7242276 C19.4656126,25.2517073 19.2683004,26.8936585 19.0596047,28.6321951 L19.0520158,28.6965854 C18.5378656,32.9731707 17.955415,37.8185366 17.2961265,41.8125203 C17.2919124,41.8382689 17.2896931,41.8642727 17.2894862,41.8903252 C17.2894862,42.2391057 16.8777866,42.6317073 12.0398419,42.874065 L12.0218182,42.874065 C7.18387352,42.6406504 6.77881423,42.2480488 6.77501976,41.8903252 C6.77476705,41.8645713 6.77254788,41.838868 6.76837945,41.8134146 C6.10434783,37.8113821 5.52379447,32.9552846 5.00964427,28.6670732 C4.80948617,27.0009756 4.60268775,25.2776423 4.40442688,23.722439 C4.3880136,23.5813807 4.31212328,23.4524696 4.19383399,23.3647154 C4.07708921,23.2774877 3.92804786,23.238171 3.78023715,23.2556098 C3.4723383,23.2901522 3.25189775,23.5527254 3.28695652,23.8431707 L3.77454545,27.8264228 L3.50513834,27.7593496 C3.10577075,27.659187 2.59351779,27.4910569 2.16853755,27.0725203 C1.59177866,26.5046341 1.47320158,25.0889431 1.30909091,23.1304065 L1.24932806,22.4256911 C1.0283004,19.8804878 1.79098814,16.5688618 3.01754941,14.774878 C4.24411067,12.9808943 5.92505929,12.4308943 12.0294071,12.4308943 C18.1337549,12.4308943 19.7710672,13.2134146 21.0412648,14.774878 C22.3114625,16.3363415 23.0381028,19.8831707 22.8161265,22.4292683 L22.8161265,22.4292683 Z" id="Shape"></path>
                    </g>
                </g>
            </g>
        </g>
    </g>
</svg>