<?xml version="1.0" encoding="UTF-8" standalone="no"?>
<svg width="52px" height="52px" viewBox="0 0 52 52" version="1.1" xmlns="http://www.w3.org/2000/svg" xmlns:xlink="http://www.w3.org/1999/xlink">
    <!-- Generator: sketchtool 3.6.1 (26313) - http://www.bohemiancoding.com/sketch -->
    <title>Group 21</title>
    <desc>Created with sketchtool.</desc>
    <defs>
        <path id="path-1" d="M0,16.3044335 L31.7857375,16.3044335 L31.7857375,0 L0,0 L0,16.3044335 Z"></path>
    </defs>
    <g id="Page-1" stroke="none" stroke-width="1" fill="none" fill-rule="evenodd">
        <g id="My-Genetics" transform="translate(-820.000000, -4031.000000)">
            <g id="Group-21" transform="translate(819.135135, 4031.000000)">
                <circle id="Oval-72" fill="#2D96DD" cx="26.8648649" cy="26" r="26"></circle>
                <g id="Page-1" transform="translate(10.971996, 17.951350)">
                    <path d="M5.48648649,4.3517827 L5.48648649,1.80523399 C5.48648649,1.24273103 5.93148681,0.786206897 6.47979078,0.786206897 L8.46639938,0.786206897 C9.01470335,0.786206897 9.45970368,1.24273103 9.45970368,1.80523399 L9.45970368,15.0525862 C9.45970368,15.6145796 9.01470335,16.0716133 8.46639938,16.0716133 L6.47979078,16.0716133 C5.93148681,16.0716133 5.48648649,15.6145796 5.48648649,15.0525862 L5.48648649,12.5029804 L5.48648649,4.3517827 L5.48648649,4.3517827 Z" id="Stroke-1" stroke="#FFFFFF" stroke-width="1.00351999"></path>
                    <path d="M5.33126425,13.5679187 L3.34465565,13.5679187 C2.79635168,13.5679187 2.35135135,13.1113946 2.35135135,12.5488916 L2.35135135,3.37764778 C2.35135135,2.81514483 2.79635168,2.35862069 3.34465565,2.35862069 L5.33126425,2.35862069" id="Stroke-3" stroke="#FFFFFF" stroke-width="1.00351999"></path>
                    <path d="M26.7029469,13.7768917 L26.7029469,15.0525862 C26.7029469,15.6150892 26.2579466,16.0716133 25.7096426,16.0716133 L23.723034,16.0716133 C23.1747301,16.0716133 22.7297297,15.6150892 22.7297297,15.0525862 L22.7297297,1.80523399 C22.7297297,1.24324055 23.1747301,0.786206897 23.723034,0.786206897 L25.7096426,0.786206897 C26.2579466,0.786206897 26.7029469,1.24324055 26.7029469,1.80523399 L26.7029469,4.35483978 L26.7029469,10.6518063 L26.7029469,13.7768917 Z" id="Stroke-5" stroke="#FFFFFF" stroke-width="1.00351999"></path>
                    <path d="M26.6486486,2.35862069 L28.6352572,2.35862069 C29.1835612,2.35862069 29.6285615,2.81514483 29.6285615,3.37764778 L29.6285615,12.5488916 C29.6285615,13.1113946 29.1835612,13.5679187 28.6352572,13.5679187 L26.6486486,13.5679187" id="Stroke-7" stroke="#FFFFFF" stroke-width="1.00351999"></path>
                    <mask id="mask-2" fill="white">
                        <use xlink:href="#path-1"></use>
                    </mask>
                    <g id="Clip-10"></g>
                    <path d="M9.40540541,10.1329433 L22.3183613,10.1329433 L22.3183613,7.07586207 L9.40540541,7.07586207 L9.40540541,10.1329433 Z" id="Stroke-9" stroke="#FFFFFF" stroke-width="1.00351999"></path>
                    <path d="M2.77039238,10.1329433 L0.783783784,10.1329433 L0.783783784,7.07586207 L2.77039238,7.07586207" id="Stroke-11" stroke="#FFFFFF" stroke-width="1.00351999"></path>
                    <path d="M29,7.07586207 L30.9866086,7.07586207 L30.9866086,10.1329433 L29,10.1329433" id="Stroke-12" stroke="#FFFFFF" stroke-width="1.00351999"></path>
                </g>
            </g>
        </g>
    </g>
</svg>