<?xml version="1.0" encoding="UTF-8" standalone="no"?>
<svg width="54px" height="54px" viewBox="0 0 54 54" version="1.1" xmlns="http://www.w3.org/2000/svg" xmlns:xlink="http://www.w3.org/1999/xlink">
    <!-- Generator: sketchtool 3.6.1 (26313) - http://www.bohemiancoding.com/sketch -->
    <title>Group 17</title>
    <desc>Created with sketchtool.</desc>
    <defs></defs>
    <g id="Page-1" stroke="none" stroke-width="1" fill="none" fill-rule="evenodd">
        <g id="My-Genetics" transform="translate(-525.000000, -4091.000000)">
            <g id="Group-17" transform="translate(526.000000, 4092.000000)">
                <circle id="Oval-72" stroke="#2D96DD" fill="#FFFFFF" cx="26" cy="26" r="26"></circle>
                <g id="Group-9" transform="translate(12.000000, 11.000000)" stroke="#FFFFFF" stroke-width="0.5" fill="#2D96DD">
                    <path d="M4.22898066,21.1871765 C3.93892362,21.1871765 3.6697412,20.9999677 3.57749176,20.7068574 C2.4814371,17.2280767 2.90977716,13.6884532 4.64346507,11.8989569 C4.90717815,11.62677 5.33998483,11.6211721 5.61016996,11.8867517 C5.8805374,12.1522395 5.88591558,12.5879589 5.62229365,12.8599623 C4.25268111,14.2736643 3.94776571,17.329298 4.88074303,20.2906848 C4.99486982,20.652989 4.79560373,21.0398872 4.43581266,21.1548738 C4.36708136,21.1767149 4.29734734,21.1871765 4.22898066,21.1871765 L4.22898066,21.1871765 Z" id="Shape"></path>
                    <path d="M24.6298722,10.1589242 C21.7879147,7.2253434 18.7605469,7.17551282 16.7213966,7.65014228 C15.5757534,7.9168231 14.6195314,8.37117161 13.9612969,8.7490765 C13.9006785,8.4224705 13.8217378,8.10348132 13.7278475,7.79192544 C13.7971258,7.79724804 13.8670421,7.80045996 13.9383257,7.80045996 C14.7146066,7.80045996 15.6057435,7.48064487 16.5871245,6.8498245 C17.6819941,6.14586421 18.9073985,5.05225259 19.785409,3.99571566 C20.9740778,2.56512814 21.3328661,1.45518163 20.8516558,0.696710533 C20.558226,0.234469891 20.0139361,0 19.2336443,0 C17.6036915,0 15.0451367,1.01881985 13.5129027,2.00377694 C12.5096444,2.64891327 11.9233317,3.28698339 11.6073865,3.88320682 C10.810231,2.87980417 9.96266643,2.07370494 9.29522529,1.50638875 C9.00662674,1.26109011 8.57527855,1.29798127 8.33180201,1.58843027 C8.08823431,1.87887927 8.12469654,2.31322213 8.41329509,2.55833723 C9.7366006,3.68287502 11.8442998,5.83339064 12.5206742,8.55856398 C11.8907892,8.22755306 11.0651931,7.87314104 10.1073303,7.65023405 C8.06818008,7.17551282 5.04090338,7.22552694 2.19885482,10.159016 C0.664706464,11.7426743 -0.0880562869,14.3178052 0.0796699739,17.41033 C0.237369121,20.3210604 1.21091068,23.3018105 2.75061952,25.5883278 C4.68038308,28.4539078 7.24085207,29.9461641 10.0699565,29.9459806 C11.152429,29.9458888 12.274463,29.7271114 13.4150927,29.2834081 C14.555449,29.7267443 15.6767537,29.9460723 16.7589527,29.9459806 C19.5876926,29.9458888 22.1486174,28.4535407 24.0781986,25.5883278 C25.6179986,23.3018105 26.5915402,20.3209686 26.7493305,17.41033 C26.9166921,14.3178052 26.1642028,11.7425825 24.6298722,10.1589242 L24.6298722,10.1589242 Z M14.2489839,3.16392111 C15.7559679,2.19502361 18.0386859,1.37653556 19.2336443,1.37653556 C19.5131273,1.37653556 19.6442091,1.42159416 19.6921569,1.44398581 C19.6974439,1.61458445 19.5191436,2.2101655 18.6014804,3.27165796 C17.8218268,4.17356406 16.7679771,5.10006426 15.8510432,5.68958856 C15.1038409,6.16999947 14.4423249,6.4239244 13.9382346,6.4239244 C13.7277564,6.4239244 13.5430752,6.37978349 13.3784482,6.28929922 L15.4703775,4.97388184 C15.7906071,4.77254057 15.8881435,4.34792523 15.688057,4.02544883 C15.4881529,3.70297243 15.0661937,3.60487133 14.7460553,3.80630437 L12.6679816,5.11309547 C12.6709898,4.64076023 12.9839269,3.97736186 14.2489839,3.16392111 L14.2489839,3.16392111 Z M25.3838199,17.3351712 C25.2392472,20.0035395 24.3508449,22.7300894 22.9463198,24.8157243 C21.5791685,26.8461142 18.5568142,29.9478159 13.6766181,27.9068726 C13.6763446,27.9067808 13.6760711,27.906689 13.6757065,27.9065972 C13.6486333,27.8953097 13.3798155,27.800604 13.1521089,27.9068726 C8.35841943,30.1452111 5.2495585,26.8461142 3.882316,24.8157243 C2.47797319,22.7300894 1.58947979,20.0035395 1.44481589,17.3351712 C1.30042545,14.671116 1.9321336,12.4057056 3.1776834,11.1199296 C5.09049202,9.14542698 7.30283786,8.42559065 9.75355553,8.98070155 C11.6379236,9.40733581 12.9767256,10.4574489 12.9901254,10.4680023 C13.2389802,10.6661317 13.5821809,10.6615432 13.8246547,10.4780052 C13.8293948,10.4747933 15.1909857,9.40733581 17.0752626,8.98070155 C19.525798,8.42577418 21.738235,9.14542698 23.6510436,11.1199296 C24.8966845,12.4057973 25.5282104,14.671116 25.3838199,17.3351712 L25.3838199,17.3351712 Z" id="Shape"></path>
                </g>
            </g>
        </g>
    </g>
</svg>