<?xml version="1.0" encoding="UTF-8" standalone="no"?>
<svg width="52px" height="52px" viewBox="0 0 52 52" version="1.1" xmlns="http://www.w3.org/2000/svg" xmlns:xlink="http://www.w3.org/1999/xlink">
    <!-- Generator: sketchtool 3.6.1 (26313) - http://www.bohemiancoding.com/sketch -->
    <title>Group 24</title>
    <desc>Created with sketchtool.</desc>
    <defs></defs>
    <g id="Page-1" stroke="none" stroke-width="1" fill="none" fill-rule="evenodd">
        <g id="My-Genetics" transform="translate(-466.000000, -4031.000000)">
            <g id="Group-24" transform="translate(466.000000, 4031.000000)">
                <ellipse id="Oval-72" fill="#2D96DD" cx="26" cy="26" rx="26" ry="26"></ellipse>
                <g id="Group" transform="translate(18.027027, 8.648276)" fill="#FFFFFF">
                    <path d="M4.10641959,33.3267584 L2.41296655,33.3267584 C2.14216926,33.3267584 1.92310169,33.1017001 1.92310169,32.8234973 L1.92310169,17.794509 C0.4266625,17.041127 0.216196959,16.6316738 0.216196959,16.3294151 C0.227679392,15.9962562 0.486034122,8.54950103 0.911824662,5.33929882 C1.36052128,1.93191889 3.73324054,0.265419929 3.83376081,0.196070543 C3.98493311,0.0929020079 4.17912534,0.0835413506 4.33704797,0.170504877 C4.49673412,0.257971664 4.59627466,0.428577194 4.59627466,0.614381209 L4.59627466,32.8234973 C4.59628446,33.1017001 4.37720709,33.3267584 4.10641959,33.3267584 L4.10641959,33.3267584 Z M2.90283142,32.3202361 L3.61655473,32.3202361 L3.61655473,1.73977379 C2.97169662,2.45098244 2.11640236,3.69635248 1.88196284,5.47447477 C1.49830068,8.37556392 1.24287534,15.0442875 1.20172669,16.181557 C1.32320338,16.2945895 1.67717973,16.5682629 2.62055169,17.0219025 C2.79279797,17.1045379 2.90283142,17.2823904 2.90283142,17.4775652 L2.90283142,32.3202361 L2.90283142,32.3202361 Z" id="Shape"></path>
                    <path d="M13.8080953,33.3267584 L12.9661057,33.3267584 C12.6953378,33.3267584 12.4762409,33.1017001 12.4762409,32.8234973 C12.4762409,32.5453952 12.6953378,32.3202361 12.9661057,32.3202361 L13.3182304,32.3202361 L13.3182304,12.52154 C13.3182304,11.9725827 13.6387196,11.6757593 13.8970743,11.4369115 C14.1926588,11.162131 14.4490443,10.9252963 14.4490443,10.1959702 L14.4490443,7.72687036 C14.4490443,7.44865753 14.6682,7.22360921 14.9389091,7.22360921 C15.2097064,7.22360921 15.428774,7.44865753 15.428774,7.72687036 L15.428774,10.1959601 C15.428774,11.3729873 14.9016892,11.86105 14.5524057,12.1844456 C14.3361794,12.3849448 14.2979699,12.4355729 14.2979699,12.5215299 L14.2979699,32.8234872 C14.2979601,33.1017001 14.0788044,33.3267584 13.8080953,33.3267584 L13.8080953,33.3267584 Z" id="Shape"></path>
                    <path d="M12.9661155,8.23013151 C12.6953476,8.23013151 12.4762507,8.00497247 12.4762507,7.72687036 L12.4762507,0.99182707 C12.4762507,0.713624308 12.6953476,0.488565922 12.9661155,0.488565922 C13.2368247,0.488565922 13.4559804,0.713624308 13.4559804,0.99182707 L13.4559804,7.72687036 C13.4559804,8.00497247 13.2368149,8.23013151 12.9661155,8.23013151 L12.9661155,8.23013151 Z" id="Shape"></path>
                    <path d="M14.9389091,8.23013151 C14.6682,8.23013151 14.4490443,8.00497247 14.4490443,7.72687036 L14.4490443,0.99182707 C14.4490443,0.713624308 14.6682,0.488565922 14.9389091,0.488565922 C15.2097064,0.488565922 15.428774,0.713624308 15.428774,0.99182707 L15.428774,7.72687036 C15.428774,8.00497247 15.2096966,8.23013151 14.9389091,8.23013151 L14.9389091,8.23013151 Z" id="Shape"></path>
                    <path d="M12.9661155,33.3267584 L12.1221861,33.3267584 C11.851477,33.3267584 11.6323213,33.1017001 11.6323213,32.8234973 L11.6323213,12.52154 C11.6323213,12.435583 11.5941412,12.3849549 11.3778855,12.1844557 C11.028602,11.86106 10.5015172,11.3729974 10.5015172,10.1959702 L10.5015172,7.72687036 C10.5015172,7.44865753 10.7205848,7.22360921 10.9913821,7.22360921 C11.2620912,7.22360921 11.481247,7.44865753 11.481247,7.72687036 L11.481247,10.1959601 C11.481247,10.9252862 11.7376618,11.1621209 12.0332463,11.4369015 C12.291601,11.6757492 12.6120608,11.9725726 12.6120608,12.5215299 L12.6120608,32.3202261 L12.9661253,32.3202261 C13.2368345,32.3202261 13.4559902,32.5453851 13.4559902,32.8234872 C13.4559804,33.1017001 13.2368149,33.3267584 12.9661155,33.3267584 L12.9661155,33.3267584 Z" id="Shape"></path>
                    <path d="M10.9913723,8.23013151 C10.720575,8.23013151 10.5015074,8.00497247 10.5015074,7.72687036 L10.5015074,0.99182707 C10.5015074,0.713624308 10.720575,0.488565922 10.9913723,0.488565922 C11.2620814,0.488565922 11.4812372,0.713624308 11.4812372,0.99182707 L11.4812372,7.72687036 C11.4812372,8.00497247 11.2620814,8.23013151 10.9913723,8.23013151 L10.9913723,8.23013151 Z" id="Shape"></path>
                    <path d="M13.953497,9.24541055 C13.139224,9.24541055 12.4762507,8.56429691 12.4762507,7.72687036 C12.4762507,7.44865753 12.6953476,7.22360921 12.9661155,7.22360921 C13.2368247,7.22360921 13.4559804,7.44865753 13.4559804,7.72687036 C13.4559804,8.00939111 13.6788787,8.23888825 13.953497,8.23888825 C14.2271355,8.23888825 14.4490443,8.00940117 14.4490443,7.72687036 C14.4490443,7.44865753 14.6682,7.22360921 14.9389091,7.22360921 C15.2097064,7.22360921 15.428774,7.44865753 15.428774,7.72687036 C15.428774,8.56429691 14.7667804,9.24541055 13.953497,9.24541055 L13.953497,9.24541055 Z" id="Shape"></path>
                    <path d="M11.9787537,9.24541055 C11.1644807,9.24541055 10.5015074,8.56429691 10.5015074,7.72687036 C10.5015074,7.44865753 10.720575,7.22360921 10.9913723,7.22360921 C11.2620814,7.22360921 11.4812372,7.44865753 11.4812372,7.72687036 C11.4812372,8.00939111 11.7041355,8.23888825 11.9787537,8.23888825 C12.2532544,8.23888825 12.4762409,8.00940117 12.4762409,7.72687036 C12.4762409,7.44865753 12.6953378,7.22360921 12.9661057,7.22360921 C13.2368149,7.22360921 13.4559706,7.44865753 13.4559706,7.72687036 C13.4559804,8.56429691 12.7929091,9.24541055 11.9787537,9.24541055 L11.9787537,9.24541055 Z" id="Shape"></path>
                </g>
            </g>
        </g>
    </g>
</svg>