<?xml version="1.0" encoding="UTF-8" standalone="no"?>
<svg width="54px" height="54px" viewBox="0 0 54 54" version="1.1" xmlns="http://www.w3.org/2000/svg" xmlns:xlink="http://www.w3.org/1999/xlink">
    <!-- Generator: sketchtool 3.6.1 (26313) - http://www.bohemiancoding.com/sketch -->
    <title>Group 30</title>
    <desc>Created with sketchtool.</desc>
    <defs>
        <path id="path-1" d="M26,52 C40.3594035,52 52,40.3594035 52,26 C52,11.6405965 40.3594035,0 26,0 C11.6405965,0 0,11.6405965 0,26 C0,40.3594035 11.6405965,52 26,52 Z"></path>
    </defs>
    <g id="Page-1" stroke="none" stroke-width="1" fill="none" fill-rule="evenodd">
        <g id="My-Genetics" transform="translate(-171.000000, -4092.000000)">
            <g id="Group-30" transform="translate(172.000000, 4093.000000)">
                <g id="Rectangle-124">
                    <mask id="mask-2" fill="white">
                        <use xlink:href="#path-1"></use>
                    </mask>
                    <use id="Mask" stroke="#2D96DD" stroke-width="2" fill="#2D96DD" xlink:href="#path-1"></use>
                    <rect fill="#FFFFFF" mask="url(#mask-2)" x="13" y="-2" width="41" height="56"></rect>
                </g>
                <g id="Page-1" transform="translate(13.000000, 12.000000)">
                    <path d="M18.6968059,13.7586207 C18.6968059,17.6576363 18.0515381,21.1789555 17.0150054,23.681693 C16.031371,26.0574961 14.6961455,27.5172414 13.22457,27.5172414 C11.7438742,27.5172414 10.4004403,26.0384116 9.41498182,23.6359789 C8.38939361,21.1350167 7.75233415,17.632782 7.75233415,13.7586207 C7.75233415,6.16031146 10.2025278,0 13.22457,0 C16.2466123,0 18.6968059,6.16031146 18.6968059,13.7586207 L18.6968059,13.7586207 Z" id="Stroke-1" stroke="#2D96DD" stroke-width="0.903168027"></path>
                    <path d="M20.1314437,4.61033626 C22.2336943,4.23219611 23.8598604,4.50248643 24.6214133,5.52550645 C25.5858948,6.81970445 24.9666201,9.0552584 23.2036482,11.5553329" id="Stroke-3" stroke="#2D96DD" stroke-width="0.903168027"></path>
                    <path d="M6.47999371,22.8856902 C4.2988517,23.3073254 2.60884285,23.0494622 1.82768118,22.0007002 C0.860463489,20.7025078 1.48566644,18.4585211 3.25912688,15.9509016" id="Stroke-5" stroke="#2D96DD" stroke-width="0.903168027"></path>
                    <path d="M18.5349189,11.0323722 C23.5283342,15.2260885 26.2033455,19.8782776 24.6223253,22.000212 C22.9336845,24.2672776 16.9935725,22.8394879 11.0361317,18.8397237" id="Stroke-7" stroke="#2D96DD" stroke-width="0.903168027"></path>
                    <path d="M7.90017572,16.4831383 C2.91588088,12.2920849 0.247253857,7.646997 1.82736197,5.5263941 C2.70246369,4.35069778 4.72308678,4.16917275 7.2964057,4.8255921 C9.57057572,5.40478565 12.2770524,6.63862325 15.0072421,8.41881123" id="Stroke-9" stroke="#2D96DD" stroke-width="0.903168027"></path>
                    <path d="M1.82407862,16.4215795 C2.83142604,16.4215795 3.64815725,17.2164727 3.64815725,18.1968854 C3.64815725,19.1772981 2.83142604,19.9721913 1.82407862,19.9721913 C0.816731204,19.9721913 0,19.1772981 0,18.1968854 C0,17.2164727 0.816731204,16.4215795 1.82407862,16.4215795" id="Fill-11" fill="#2D96DD"></path>
                    <path d="M22.3449631,21.3591491 C23.3523106,21.3591491 24.1690418,22.1287442 24.1690418,23.0789766 C24.1690418,24.0287653 23.3523106,24.7988042 22.3449631,24.7988042 C21.3376157,24.7988042 20.5208845,24.0287653 20.5208845,23.0789766 C20.5208845,22.1287442 21.3376157,21.3591491 22.3449631,21.3591491" id="Fill-13" fill="#2D96DD"></path>
                    <path d="M15.5046683,0 C16.5120157,0 17.3287469,0.794893215 17.3287469,1.7753059 C17.3287469,2.75571858 16.5120157,3.55061179 15.5046683,3.55061179 C14.4973209,3.55061179 13.6805897,2.75571858 13.6805897,1.7753059 C13.6805897,0.794893215 14.4973209,0 15.5046683,0" id="Fill-15" fill="#2D96DD"></path>
                </g>
            </g>
        </g>
    </g>
</svg>