<?xml version="1.0" encoding="UTF-8" standalone="no"?>
<svg width="54px" height="54px" viewBox="0 0 54 54" version="1.1" xmlns="http://www.w3.org/2000/svg" xmlns:xlink="http://www.w3.org/1999/xlink">
    <!-- Generator: sketchtool 3.6.1 (26313) - http://www.bohemiancoding.com/sketch -->
    <title>Group 15</title>
    <desc>Created with sketchtool.</desc>
    <defs></defs>
    <g id="Page-1" stroke="none" stroke-width="1" fill="none" fill-rule="evenodd">
        <g id="My-Genetics" transform="translate(-586.000000, -4091.000000)">
            <g id="Group-15" transform="translate(587.000000, 4092.000000)">
                <circle id="Oval-72" stroke="#2D96DD" fill="#FFFFFF" cx="26" cy="26" r="26"></circle>
                <g id="stick-man_2" transform="translate(16.000000, 8.000000)" fill="#2D96DD">
                    <g id="Capa_1">
                        <path d="M9.43142827,0 C7.54811665,0 6.01574191,1.7310614 6.01574191,3.85938099 C6.01574191,5.98770059 7.54811665,7.71876198 9.43142827,7.71876198 C11.3147399,7.71876198 12.8471146,5.98770059 12.8471146,3.85938099 C12.8471146,1.7310614 11.3147399,0 9.43142827,0 L9.43142827,0 Z M9.43142827,6.88487132 C8.0343724,6.88487132 6.89754513,5.52786543 6.89754513,3.86149033 C6.89754513,2.19511522 8.0343724,0.838109336 9.43142827,0.838109336 C10.8284841,0.838109336 11.9653114,2.19511522 11.9653114,3.86149033 C11.9653114,5.52786543 10.8284841,6.88487132 9.43142827,6.88487132 L9.43142827,6.88487132 Z" id="Shape"></path>
                        <path d="M14.9482748,9.50958789 C13.6501058,9.16506308 11.4835167,8.94217662 9.42845422,8.94217662 C7.37339173,8.94217662 5.21200726,9.16506308 3.91383827,9.50958789 C2.73909198,9.82176955 2.20376456,10.2830109 1.42977032,11.6554853 C0.513765623,13.2775643 -0.0572502938,15.8741564 0.100373892,17.7022473 L0.147215041,18.2527839 C0.295917103,20.0295475 0.394060464,21.2058537 1.06321974,21.8646695 C1.64018374,22.4348932 2.31603461,22.6043431 2.95842752,22.7294971 L3.06400598,22.7498873 L3.07590215,22.8511354 C3.4476573,25.953968 3.91012071,29.8119428 4.42760389,32.9639933 L4.42760389,32.9815711 C4.45511377,33.8745231 6.07224869,34.3962321 9.2321675,34.5326358 L9.25893387,34.5326358 L9.25893387,34.5227923 L9.41284051,34.5312296 L9.43663284,34.5312296 C9.45048836,34.532306 9.46441389,34.532306 9.47826942,34.5312296 L9.64704626,34.5234954 C12.7935819,34.3884979 14.4055122,33.8667889 14.4307916,32.9766493 L14.4307916,32.9590715 C14.9527358,29.8119428 15.4151992,25.9518587 15.7869544,22.8511354 L15.7988506,22.7498873 L15.904429,22.7294971 C16.5468219,22.6043431 17.2226728,22.4348932 17.7996368,21.8653726 C18.4687961,21.2037443 18.5676829,20.0302506 18.7156415,18.253487 L18.7617391,17.7043566 C18.934977,15.7061127 18.4130328,13.3331102 17.4330862,11.6575946 C16.6152249,10.2576989 16.1036898,9.81614466 14.9482748,9.50958789 L14.9482748,9.50958789 Z M17.8829099,17.6340454 L17.8360688,18.1859882 C17.7074415,19.7272094 17.6130157,20.8409386 17.1617049,21.2881177 C16.8286123,21.6171741 16.4271168,21.7500622 16.1140989,21.8281077 L15.902942,21.880841 L16.2851063,18.7498839 C16.3125848,18.5215338 16.1398071,18.3150969 15.8984809,18.2879394 C15.6571328,18.2610994 15.438323,18.4239945 15.4092511,18.6521514 C15.2568315,19.8530664 15.1021814,21.1439798 14.9386091,22.5108293 L14.932661,22.5614533 C14.5296785,25.9237342 14.0731631,29.7331943 13.5564235,32.8732918 C13.5531205,32.8935356 13.5513811,32.9139799 13.5512189,32.9344626 C13.5512189,33.2086762 13.2285354,33.5173423 9.43663284,33.7078856 L9.42250614,33.7078856 C5.63060357,33.5243734 5.31312467,33.2157073 5.31015062,32.9344626 C5.30995255,32.9142147 5.3082132,32.8940066 5.30494605,32.873995 C4.78448884,29.7275694 4.32946053,25.909672 3.92647794,22.5382506 C3.76959727,21.2283532 3.60751202,19.8734567 3.45211836,18.6507452 C3.4392539,18.5398441 3.3797723,18.4384933 3.28705907,18.3695004 C3.19555641,18.3009214 3.07874022,18.2700103 2.96288858,18.2837208 C2.72156245,18.3108783 2.54878472,18.5173151 2.57626322,18.7456653 L2.95842752,21.8773255 L2.74727059,21.8245921 C2.43425275,21.7458436 2.03275718,21.6136585 1.69966457,21.2846022 C1.2476103,20.8381262 1.15467151,19.7251001 1.02604423,18.1852851 L0.979203077,17.631233 C0.805965175,15.6301766 1.40374746,13.0265534 2.36510629,11.616111 C3.32646512,10.2056686 4.64396539,9.77325484 9.42845422,9.77325484 C14.2129431,9.77325484 15.4962419,10.3884777 16.4918022,11.616111 C17.4873625,12.8437443 18.0568914,15.632286 17.8829099,17.6340454 L17.8829099,17.6340454 Z" id="Shape"></path>
                    </g>
                </g>
            </g>
        </g>
    </g>
</svg>