<?xml version="1.0" encoding="UTF-8" standalone="no"?>
<svg width="52px" height="52px" viewBox="0 0 52 52" version="1.1" xmlns="http://www.w3.org/2000/svg" xmlns:xlink="http://www.w3.org/1999/xlink">
    <!-- Generator: sketchtool 3.6.1 (26313) - http://www.bohemiancoding.com/sketch -->
    <title>Group 16</title>
    <desc>Created with sketchtool.</desc>
    <defs></defs>
    <g id="Page-1" stroke="none" stroke-width="1" fill="none" fill-rule="evenodd">
        <g id="My-Genetics" transform="translate(-1177.000000, -4031.000000)">
            <g id="Group-16" transform="translate(1176.270270, 4031.000000)">
                <circle id="Oval-72" fill="#2D96DD" cx="26.7297297" cy="26" r="26"></circle>
                <g id="Page-1" transform="translate(19.697493, 11.253178)" stroke="#FFFFFF" stroke-width="0.953343978">
                    <path d="M10.7121052,3.85451076 L14.6074162,10.1155619 C15.1449691,10.1155619 15.5812439,10.5476409 15.5812439,11.0789487 L15.5812439,28.4199119 C15.5812439,28.9517014 15.1449691,29.3832987 14.6074162,29.3832987 L0.973827743,29.3832987 C0.436274829,29.3832987 0,28.9517014 0,28.4199119 L0,11.0789487 C0,10.5476409 0.436274829,10.1155619 0.973827743,10.1155619 L4.86913872,3.85354737" id="Stroke-1" stroke-linejoin="round"></path>
                    <path d="M5.84296646,3.85354737 L3.4083971,3.85354737 C2.87084419,3.85354737 2.43456936,3.42195007 2.43456936,2.89016053 L2.43456936,0.963386843 C2.43456936,0.431597306 2.87084419,0 3.4083971,0 L12.1728468,0 C12.7103997,0 13.1466745,0.431597306 13.1466745,0.963386843 L13.1466745,2.89016053 C13.1466745,3.42195007 12.7103997,3.85354737 12.1728468,3.85354737 L9.73827743,3.85354737" id="Stroke-3" stroke-linejoin="round"></path>
                    <path id="Stroke-5" stroke-linejoin="round" d="M0,14.4508026 L15.5812439,14.4508026"></path>
                    <path id="Stroke-7" stroke-linejoin="round" d="M0,26.0114448 L15.5812439,26.0114448"></path>
                    <path d="M8.78490007,23.6029777 L8.78490007,21.2022176 L11.199019,21.203181 L11.199019,19.2677369 L8.78976921,19.2677369 L8.78976921,16.8592698 L6.8167942,16.8592698 L6.8167942,19.2677369 L4.34327174,19.2677369 L4.34327174,21.2022176 L6.77784109,21.203181 L6.77784109,23.6029777 L8.78490007,23.6029777 L8.78490007,23.6029777 Z" id="Stroke-9"></path>
                </g>
            </g>
        </g>
    </g>
</svg>