<?xml version="1.0" encoding="UTF-8" standalone="no"?>
<svg width="66px" height="66px" viewBox="0 0 66 66" version="1.1" xmlns="http://www.w3.org/2000/svg" xmlns:xlink="http://www.w3.org/1999/xlink">
    <!-- Generator: sketchtool 3.6.1 (26313) - http://www.bohemiancoding.com/sketch -->
    <title>Group 23</title>
    <desc>Created with sketchtool.</desc>
    <defs></defs>
    <g id="Page-1" stroke="none" stroke-width="1" fill="none" fill-rule="evenodd">
        <g id="My-Genetics" transform="translate(-125.000000, -3667.000000)">
            <g id="Group-23" transform="translate(125.000000, 3667.000000)">
                <circle id="Oval-72-Copy" fill="#2D96DD" cx="33" cy="33" r="33"></circle>
                <g id="Page-1" transform="translate(17.000000, 16.000000)">
                    <path d="M23.8545455,17.5 C23.8545455,22.4592742 23.0312727,26.9381452 21.7088,30.1214516 C20.4538182,33.1433065 18.7502545,35 16.8727273,35 C14.9835636,35 13.2695273,33.1190323 12.0122182,30.0633065 C10.7037091,26.8822581 9.89090909,22.4276613 9.89090909,17.5 C9.89090909,7.83548387 13.0170182,0 16.8727273,0 C20.7284364,0 23.8545455,7.83548387 23.8545455,17.5 L23.8545455,17.5 Z" id="Stroke-1" stroke="#FFFFFF" stroke-width="1.15199999"></path>
                    <path d="M25.6849455,5.86402419 C28.3671273,5.38305645 30.4418909,5.72684677 31.4135273,7.02805645 C32.6440727,8.67418548 31.8539636,11.5176532 29.6046545,14.6975726" id="Stroke-3" stroke="#FFFFFF" stroke-width="1.15199999"></path>
                    <path d="M8.26757818,29.1089919 C5.48474182,29.6452823 3.32852364,29.3172984 2.33186909,27.9833468 C1.09783273,26.3321371 1.89550545,23.4779435 4.15819636,20.2884274" id="Stroke-5" stroke="#FFFFFF" stroke-width="1.15199999"></path>
                    <path d="M23.648,14.0324032 C30.0189091,19.3665161 33.4318545,25.2837742 31.4146909,27.9827258 C29.2602182,30.8662742 21.6814545,29.0502258 14.0805818,23.9628065" id="Stroke-7" stroke="#FFFFFF" stroke-width="1.15199999"></path>
                    <path d="M10.0795345,20.9653952 C3.72026182,15.6346694 0.315461818,9.72644355 2.33146182,7.02918548 C3.44797091,5.53378226 6.02600727,5.30289516 9.30920727,6.13781452 C12.2107345,6.87450806 15.6638255,8.4438629 19.1471709,10.7081371" id="Stroke-9" stroke="#FFFFFF" stroke-width="1.15199999"></path>
                    <path d="M2.32727273,20.8870968 C3.61250909,20.8870968 4.65454545,21.8981452 4.65454545,23.1451613 C4.65454545,24.3921774 3.61250909,25.4032258 2.32727273,25.4032258 C1.04203636,25.4032258 0,24.3921774 0,23.1451613 C0,21.8981452 1.04203636,20.8870968 2.32727273,20.8870968" id="Fill-11" fill="#FFFFFF"></path>
                    <path d="M28.5090909,27.1673387 C29.7943273,27.1673387 30.8363636,28.1462097 30.8363636,29.3548387 C30.8363636,30.5629032 29.7943273,31.5423387 28.5090909,31.5423387 C27.2238545,31.5423387 26.1818182,30.5629032 26.1818182,29.3548387 C26.1818182,28.1462097 27.2238545,27.1673387 28.5090909,27.1673387" id="Fill-13" fill="#FFFFFF"></path>
                    <path d="M19.7818182,0 C21.0670545,0 22.1090909,1.01104839 22.1090909,2.25806452 C22.1090909,3.50508065 21.0670545,4.51612903 19.7818182,4.51612903 C18.4965818,4.51612903 17.4545455,3.50508065 17.4545455,2.25806452 C17.4545455,1.01104839 18.4965818,0 19.7818182,0" id="Fill-15" fill="#FFFFFF"></path>
                </g>
            </g>
        </g>
    </g>
</svg>